<?xml version="1.0" encoding="utf-8"?>
<!-- Generator: Adobe Illustrator 28.0.0, SVG Export Plug-In . SVG Version: 6.00 Build 0)  -->
<svg version="1.1" id="Calque_1" xmlns="http://www.w3.org/2000/svg" xmlns:xlink="http://www.w3.org/1999/xlink" x="0px" y="0px"
	 viewBox="0 0 60 60" style="enable-background:new 0 0 60 60;" xml:space="preserve">
<style type="text/css">
	.st0{fill:#EFDF6A;}
</style>
<g>
	<path class="st0" d="M38.6,34.6c0.4,0,0.8,0,1.1,0c0-1.4,0-2.8,0-4.2c-0.4,0-0.8,0-1.1,0C38.6,31.8,38.6,33.2,38.6,34.6z"/>
	<path class="st0" d="M27.7,34.6c0.4,0,0.7,0,1.2,0c0-1.4,0-2.8,0-4.2c-0.4,0-0.8,0-1.2,0C27.7,31.8,27.7,33.2,27.7,34.6z"/>
	<path class="st0" d="M19.5,34.5c0.4,0,0.8,0,1.1,0c0-1.3,0-2.7,0-4.2c-0.4,0-0.7,0-1.1,0C19.5,31.7,19.5,33.1,19.5,34.5z"/>
	<path class="st0" d="M30,0C13.4,0,0,13.4,0,30s13.4,30,30,30s30-13.4,30-30S46.6,0,30,0z M33.5,49.8c-1.3,0.2-2.8,0.3-3.9,0.4
		c-0.9-0.1-1.6-0.1-2.2-0.2c-0.7-0.2-1.1,0.1-1.6,0.6C24.6,51.8,23.4,53,22,54c-0.7,0.5-1.6,0.8-2.5,0.9c-1.7,0.3-2.9-0.5-3.4-2.1
		c-0.7-2-0.5-4-0.1-5.9c0-0.2,0.1-0.3,0.1-0.5c0.3-1,0.1-1.6-0.7-2.4c-4.1-4.4-6.1-9.6-5.5-15.6c0.8-8,4.9-13.7,12.3-16.9
		c3.2-1.4,6.7-1.9,10.3-1.4c0.7,0.1,1.1-0.1,1.6-0.7c1.3-1.6,2.7-3.1,4.7-3.9c2.9-1.2,5.1,0,5.3,3.1c0.1,1.7-0.2,3.4-0.4,5.2
		c-0.1,0.9,0,1.5,0.6,2.2c3.8,3.9,5.8,8.7,5.7,14C50,40.4,42.6,48.1,33.5,49.8z"/>
	<path class="st0" d="M30.6,11.7c-10.2-0.2-18.7,7.8-19,17.8c-0.5,10.3,8,18.8,17.8,18.8c10.3,0.3,18.8-7.7,19.1-17.7
		S40.8,11.9,30.6,11.7z M17.3,33.4c0,0.3,0,0.7,0,1c-0.1,0.8-0.7,1.4-1.6,1.5c-0.8,0.1-1.6-0.3-1.9-1.1c-0.1-0.3-0.2-0.6-0.2-0.9
		c0-2.6,0-5.3,0-7.9c0-1.5,1.3-2.4,2.6-1.8c0.9,0.4,1.4,2,0.9,2.7c0,0.4-0.5,0.3-1,0.5c0-0.8,0-1.3,0-1.9c-0.4,0-0.8,0-1.2-0.1
		c0,3.1,0,6.1,0,9.1c0.4,0,0.7,0,1.2,0c0-0.4,0-0.8,0-1.1c0-0.4,0.1-0.6,0.6-0.7C17.2,32.7,17.4,32.9,17.3,33.4z M21.8,35.7
		c-0.9,0-1.9,0.1-2.7-0.1c-0.4-0.1-0.8-0.7-0.9-1.2c-0.1-1.4-0.1-2.8,0-4.2c0-0.8,0.5-1.3,1.3-1.3c0.3,0,0.7,0,1.1,0
		c0-0.4,0-0.7,0-1.2c-0.7,0-1.3-0.1-2-0.1c0-0.2,0-0.6,0-1c0.8,0,1.6-0.1,2.3,0c0.4,0.1,0.9,0.7,0.9,1C21.9,30.3,21.8,33,21.8,35.7z
		 M25.4,27.8c-0.4,0-0.7,0.1-1.2,0.1c0.1,2.7,0.1,5.3,0.1,7.9c-1.2,0.1-1.2,0.1-1.2-0.9c0-2.1,0.1-4.3,0-6.4
		c-0.1-1.7,0.7-2.1,2.3-1.8C25.4,27.1,25.4,27.4,25.4,27.8z M30,35.9c-0.9,0-1.8,0.1-2.6-0.1c-0.4-0.1-0.9-0.7-0.9-1.1
		c-0.1-1.5-0.1-3,0-4.6c0-0.8,0.5-1.2,1.3-1.1c0.3,0,0.6,0,1.1,0c0-0.4,0-0.8,0-1.2c-0.4,0-0.7,0-1.1,0c-1.1,0-1.1,0-1-1.2
		c0.8,0,1.6-0.1,2.3,0.1c0.4,0.1,0.9,0.7,0.9,1.1C30.1,30.5,30,33.2,30,35.9z M36.1,25.1c0,3.3,0,6.5,0,9.8C36,36,36,36,34.8,35.8
		c0-2.6,0-5.2,0-7.8h-0.1c-0.3,0.9-0.7,1.9-1,2.8c-0.1,0-0.1,0-0.2,0c-0.3-0.9-0.7-1.9-1-2.8h-0.1c0,2.6,0,5.2,0,7.9
		c-0.4,0-0.7,0-1.1,0c0-0.3,0-0.5,0-0.8c0-3.3,0-6.6,0-9.9c0-0.3-0.2-0.8,0.4-0.9c0.6-0.1,0.8,0.2,1,0.7c0.3,1,0.6,1.9,1,3
		c0.4-1.1,0.7-2.1,1-3s0.3-0.9,1.4-0.7C36.1,24.5,36.1,24.8,36.1,25.1z M40.9,35.8c-0.9,0-1.8,0.1-2.6,0c-0.6-0.1-1-0.6-1-1.2
		c0-1.4,0-2.9,0-4.3c0-0.8,0.5-1.3,1.4-1.3c0.3,0,0.6,0,1,0c0-0.4,0-0.8,0-1.2c-0.7,0-1.4,0-2.1,0c0-0.4,0-0.8,0-1.2
		c0.8,0,1.7-0.1,2.5,0c0.3,0.1,0.8,0.7,0.8,1C41,30.3,40.9,33,40.9,35.8z M43.3,35.9c-0.8,0-1.1-0.4-1.1-1.1c0-2.6,0-5.2,0-7.7
		c0-0.9,0.7-0.4,1.1-0.5C43.3,29.7,43.3,32.8,43.3,35.9z M43.2,25.5c-0.3-0.1-0.8-0.1-1-0.3c-0.1-0.2-0.1-0.7,0.1-0.9
		c0.1-0.2,0.7-0.2,0.8-0.1c0.2,0.3,0.2,0.7,0.3,1C43.4,25.4,43.3,25.4,43.2,25.5z M44.7,24.1c0.7,0,1.1,0.4,1.1,1
		c0,3.6,0,7.1,0,10.7c-0.4,0-0.8,0-1.1,0C44.7,31.9,44.7,28,44.7,24.1z"/>
</g>
<g id="icons">
</g>
</svg>
