<?xml version="1.0" encoding="utf-8"?>
<!-- Generator: Adobe Illustrator 28.0.0, SVG Export Plug-In . SVG Version: 6.00 Build 0)  -->
<svg version="1.1" id="Calque_1" xmlns="http://www.w3.org/2000/svg" xmlns:xlink="http://www.w3.org/1999/xlink" x="0px" y="0px"
	 viewBox="0 0 800 800" style="enable-background:new 0 0 800 800;" xml:space="preserve">
<style type="text/css">
	.st0{fill:#A7B8C6;}
	.st1{fill:#F2C24E;}
	.st2{fill:#8E7878;}
	.st3{fill:#595757;}
	.st4{fill:#F6D05F;}
	.st5{fill:#3E3A39;}
	.st6{fill:#DCDADB;}
	.st7{fill:#BCBCBC;}
	.st8{fill:#EA0606;}
	.st9{fill:#ED4848;}
	.st10{fill:#E5E5E5;}
	.st11{fill:#E0E0E0;}
	.st12{fill:#D8D8D8;}
	.st13{fill:#898989;}
	.st14{opacity:0.44;fill:#C6C4C4;enable-background:new    ;}
</style>
<g id="console_00000079448959555376916590000009401512148919643058_">
	<path class="st0" d="M635.8,213c-1.7-0.5-3.5-0.7-5.3-0.7H70.9c-0.7,0-1.3,0-2,0.1c-0.2,0-0.5,0-0.7,0.1
		c-9.7,1.2-17.3,9.1-18.2,18.8c-0.1,0.7-0.1,1.3-0.1,2v367c0,11.6,9.5,21,21,21c13.4,0,24.5,10.9,24.5,24.5
		c0,10.4,8.4,18.7,18.7,18.7h473.2c10.4,0,18.7-8.4,18.7-18.7c0-3.2,0.6-6.3,1.8-9.1c2.6-6.5,7.9-11.6,14.6-14
		c2.5-0.9,5.3-1.4,8.2-1.4c11.6,0,21-9.5,21-21v-367C651.5,223.6,644.8,215.4,635.8,213z M108.3,237.9h491.4v245.8H108.3V237.9z"/>
	<g id="Console">
		<path class="st1" d="M651.5,197.4c-1-3.4-2.8-6.4-5.2-8.9c-3.7-3.8-8.8-6.1-14.4-6.1H88.6c-5.7,0-10.8,2.4-14.5,6.1
			c-2.4,2.5-4.2,5.5-5.1,9c-0.5,1.7-0.7,3.5-0.7,5.4v358.5c0,1.8,0.2,3.6,0.7,5.3c0.1,0.3,0.1,0.6,0.2,0.8l0,0
			c0.5,1.7,1.3,3.3,2.2,4.8c1.4,2.3,3.3,4.3,5.5,5.8c3.3,2.3,7.3,3.7,11.6,3.7c13,0,23.8,10.7,23.8,23.8c0,3.9,1.2,7.5,3.2,10.4
			c3.3,4.8,8.7,7.9,14.9,7.9H590c6,0,11.3-3,14.6-7.5c2.2-3,3.5-6.8,3.5-10.8c0-13.1,10.6-23.8,23.8-23.8c7.5,0,14.1-4.1,17.6-10.2
			l0,0c0.6-1,1.1-2.1,1.5-3.2c0.2-0.5,0.3-1,0.5-1.5c0.5-1.8,0.8-3.7,0.8-5.6V203C652.3,201,652,199.2,651.5,197.4z M108.3,483.7
			V237.9h491.4v245.8H108.3z"/>
		<g id="speakers">
			<path class="st2" d="M663.3,286c-1.1-4.1-4.8-7-9.2-7h-17.6c-4.4,0-8.1,2.9-9.2,7c-0.2,0.8-0.3,1.6-0.3,2.5c0,4.1,2.5,7.5,6,8.8
				c1.1,0.4,2.2,0.7,3.5,0.7h17.6c1.2,0,2.4-0.2,3.5-0.7c3.6-1.4,6.1-4.8,6-8.8C663.6,287.7,663.5,286.8,663.3,286z M663.3,422.3
				c-1.1-4.1-4.8-7.1-9.2-7.1h-17.6c-4.4,0-8.1,3-9.2,7c-0.2,0.8-0.3,1.6-0.3,2.5c0,4.1,2.6,7.6,6.2,8.9c1,0.4,2.2,0.6,3.3,0.6h17.6
				c1.2,0,2.3-0.2,3.4-0.6c3.6-1.3,6.2-4.8,6.1-8.9C663.6,423.9,663.5,423,663.3,422.3z M663.3,399.6c-1.1-4.1-4.8-7-9.2-7h-17.6
				c-4.4,0-8.1,2.9-9.2,7c-0.2,0.8-0.3,1.6-0.3,2.5c0,4,2.5,7.4,5.9,8.8c1.1,0.4,2.3,0.7,3.6,0.7h17.6c1.3,0,2.5-0.2,3.6-0.7
				c3.5-1.4,5.9-4.8,5.9-8.8C663.6,401.2,663.5,400.4,663.3,399.6z M663.3,376.8c-1.1-4.1-4.8-7-9.2-7h-17.6c-4.4,0-8.1,3-9.2,7
				c-0.2,0.8-0.3,1.6-0.3,2.5c0,4.1,2.6,7.5,6.2,8.9c1,0.4,2.2,0.6,3.3,0.6h17.6c1.2,0,2.3-0.2,3.4-0.6c3.6-1.3,6.1-4.8,6.1-8.9
				C663.6,378.4,663.5,377.6,663.3,376.8z M663.3,354.2c-1.1-4.1-4.8-7.1-9.2-7.1h-17.6c-4.4,0-8.1,2.9-9.2,7
				c-0.2,0.8-0.3,1.6-0.3,2.5c0,4.1,2.5,7.5,6,8.9c1.1,0.4,2.2,0.6,3.5,0.6h17.6c1.2,0,2.4-0.2,3.5-0.6c3.6-1.3,6.1-4.7,6-8.9
				C663.6,355.8,663.5,355,663.3,354.2z M663.3,331.5c-1.1-4.1-4.8-7-9.2-7h-17.6c-4.4,0-8.1,2.9-9.2,7c-0.2,0.8-0.3,1.6-0.3,2.5
				c0,4.1,2.5,7.5,6,8.8c1.1,0.4,2.2,0.7,3.5,0.7h17.6c1.2,0,2.4-0.2,3.5-0.7c3.6-1.4,6.1-4.8,6-8.8
				C663.6,333,663.5,332.2,663.3,331.5z M663.3,445c-1.1-4.1-4.8-7-9.2-7h-17.6c-4.4,0-8.1,3-9.2,7c-0.2,0.8-0.3,1.6-0.3,2.5
				c0,5.3,4.3,9.5,9.5,9.5h17.6c5.3,0,9.6-4.3,9.5-9.5C663.6,446.7,663.5,445.8,663.3,445z M663.3,308.8c-1.1-4.1-4.8-7.1-9.2-7.1
				h-17.6c-4.4,0-8.1,2.9-9.2,7c-0.2,0.8-0.3,1.6-0.3,2.5c0,4.1,2.5,7.5,6,8.8c1.1,0.4,2.2,0.7,3.5,0.7h17.6c1.2,0,2.4-0.2,3.5-0.6
				c3.6-1.4,6.1-4.8,6-8.9C663.6,310.4,663.5,309.5,663.3,308.8z"/>
			<path class="st3" d="M654.1,274h-17.6c-5.3,0-9.5,4.2-9.5,9.5c0,0.9,0.1,1.7,0.3,2.5c1.1,4.1,4.8,7,9.2,7h17.6c4.4,0,8.1-3,9.2-7
				c0.2-0.8,0.3-1.7,0.3-2.5C663.6,278.2,659.3,274,654.1,274z M657.7,410.9c-1.1-0.5-2.3-0.7-3.6-0.7h-17.6c-1.3,0-2.5,0.2-3.6,0.7
				c-3.5,1.4-5.9,4.8-5.9,8.8c0,0.9,0.1,1.7,0.3,2.5c1.1,4.1,4.8,7,9.2,7h17.6c4.4,0,8.1-2.9,9.2-6.9c0.2-0.8,0.3-1.7,0.3-2.6
				C663.6,415.7,661.1,412.3,657.7,410.9z M657.5,388.2c-1-0.4-2.2-0.6-3.4-0.6h-17.6c-1.2,0-2.3,0.2-3.3,0.6
				c-3.6,1.3-6.2,4.8-6.2,8.9c0,0.9,0.1,1.7,0.3,2.5c1.1,4.1,4.8,7,9.2,7h17.6c4.4,0,8.1-2.9,9.2-7c0.2-0.8,0.3-1.6,0.3-2.5
				C663.6,393,661,389.5,657.5,388.2z M657.6,365.5c-1.1-0.4-2.3-0.7-3.5-0.7h-17.6c-1.2,0-2.4,0.2-3.5,0.7c-3.6,1.4-6,4.8-6,8.8
				c0,0.9,0.1,1.7,0.3,2.5c1.1,4.1,4.8,7,9.2,7h17.6c4.4,0,8.1-2.9,9.2-7c0.2-0.8,0.3-1.6,0.3-2.5
				C663.6,370.2,661.1,366.8,657.6,365.5z M657.6,342.8c-1.1-0.4-2.2-0.7-3.5-0.7h-17.6c-1.2,0-2.4,0.2-3.5,0.6
				c-3.6,1.4-6,4.8-6,8.9c0,0.9,0.1,1.7,0.3,2.5c1.1,4.1,4.8,7,9.2,7h17.6c4.4,0,8.1-2.8,9.2-6.9c0.2-0.8,0.3-1.7,0.3-2.6
				C663.6,347.5,661.1,344.1,657.6,342.8z M657.6,320.1c-1.1-0.4-2.3-0.7-3.5-0.7h-17.6c-1.2,0-2.4,0.2-3.5,0.6
				c-3.6,1.4-6,4.8-6,8.9c0,0.9,0.1,1.7,0.3,2.5c1.1,4.1,4.8,7,9.2,7h17.6c4.4,0,8.1-3,9.2-7c0.2-0.8,0.3-1.7,0.3-2.5
				C663.6,324.8,661.1,321.4,657.6,320.1z M657.5,433.6c-1-0.4-2.2-0.6-3.4-0.6h-17.6c-1.2,0-2.3,0.2-3.3,0.6
				c-3.6,1.4-6.2,4.9-6.2,8.9c0,0.9,0.1,1.7,0.3,2.5c1.1,4.1,4.8,7,9.2,7h17.6c4.4,0,8.1-3,9.2-7c0.2-0.8,0.3-1.7,0.3-2.5
				C663.6,438.4,661,435,657.5,433.6z M657.6,297.3c-1.1-0.4-2.2-0.6-3.5-0.6h-17.6c-1.2,0-2.4,0.2-3.5,0.6c-3.6,1.4-6,4.8-6,8.9
				c0,0.9,0.1,1.7,0.3,2.5c1.1,4.1,4.8,7,9.2,7h17.6c4.4,0,8.1-2.9,9.2-6.9c0.2-0.8,0.3-1.7,0.3-2.6
				C663.6,302.1,661.1,298.7,657.6,297.3z"/>
		</g>
		<g id="ombre">
			<polygon class="st4" points="108.3,483.7 170.8,483.7 157.1,498.3 83.8,577 82.6,578.2 68.9,578.2 68.9,444.2 84.3,427.7 
				108.3,402 			"/>
			<polygon class="st4" points="451.8,182.4 447.9,186.6 434.9,200.5 430.2,205.5 423.9,212.3 419.2,217.3 410.9,226.2 400,237.9 
				261.4,237.9 272.3,226.2 280.6,217.3 285.3,212.3 291.6,205.5 296.3,200.5 309.3,186.6 313.2,182.4 			"/>
			<g>
				<polygon class="st4" points="231.8,483.7 260.3,483.7 246.6,498.3 216.3,530.8 209,538.6 178.4,571.4 178.4,571.4 168.7,581.8 
					140.2,581.8 156,564.8 161.3,559.2 164.6,555.7 167.8,552.2 169,551 174.6,544.9 191.6,526.7 196.7,521.2 199.2,518.6 
					202.8,514.7 203,514.5 205.8,511.4 206,511.3 218.1,498.3 				"/>
				<polygon class="st4" points="538.2,185.9 537.5,186.6 524.6,200.5 519.9,205.5 513.6,212.3 508.9,217.3 500.6,226.2 
					489.7,237.9 461.1,237.9 472,226.2 480.3,217.3 485,212.3 491.3,205.5 496,200.5 509,186.6 509.6,185.9 				"/>
				<polygon class="st4" points="231.8,483.7 260.3,483.7 246.6,498.3 216.3,530.8 209,538.6 178.4,571.4 178.4,571.4 168.7,581.8 
					140.2,581.8 156,564.8 161.3,559.2 164.6,555.7 167.8,552.2 169,551 174.6,544.9 191.6,526.7 196.7,521.2 199.2,518.6 
					202.8,514.7 203,514.5 205.8,511.4 206,511.3 218.1,498.3 				"/>
				<polygon class="st4" points="538.2,185.9 537.5,186.6 524.6,200.5 519.9,205.5 513.6,212.3 508.9,217.3 500.6,226.2 
					489.7,237.9 461.1,237.9 472,226.2 480.3,217.3 485,212.3 491.3,205.5 496,200.5 509,186.6 509.6,185.9 				"/>
			</g>
		</g>
		<g id="contour_console">
			<path class="st5" d="M640,167.8H80.5c-16.8,0-30.5,13.7-30.5,30.5v367c0,16.8,13.7,30.5,30.5,30.5c8.2,0,14.9,6.6,14.9,14.9
				c0,15.5,12.7,28.2,28.2,28.2h473.2c3.9,0,7.6-0.8,11-2.2c6.4-2.7,11.6-7.7,14.6-14c1.7-3.7,2.7-7.7,2.8-12
				c0-8.2,6.6-14.9,14.9-14.9c4.1,0,8-0.8,11.5-2.3c11.1-4.5,19-15.5,19-28.2v-367C670.5,181.5,656.8,167.8,640,167.8z M649.5,571.7
				L649.5,571.7c-2.1,3.1-5.6,5.1-9.6,5.1c-18.7,0-33.9,15.2-33.9,33.9c0,2.1-0.7,4-1.8,5.5c-1.7,2.2-4.3,3.7-7.4,3.7H123.6
				c-3.2,0-6-1.6-7.6-4.1c-1-1.5-1.6-3.2-1.6-5.1c0-17.6-13.5-32.1-30.6-33.7c-1.1-0.1-2.2-0.2-3.3-0.2c-3.7,0-7-1.7-9.1-4.4
				c-1.1-1.4-1.9-3-2.2-4.8l0,0c-0.2-0.8-0.2-1.5-0.2-2.3v-367c0-0.2,0-0.5,0-0.7c0.2-3.7,2.2-7,5.1-9c1.8-1.2,4-2,6.4-2h559.4
				c2.3,0,4.5,0.7,6.3,1.9c3,1.9,5,5.2,5.2,8.9c0,0.3,0,0.5,0,0.8v367c0,1.1-0.2,2.2-0.5,3.3C650.7,569.6,650.2,570.7,649.5,571.7z"
				/>
		</g>
	</g>
	<g id="écran_00000181078337347862848370000016898551045238406820_">
		<path class="st6" d="M605,226.2H92c-4.2,0-7.6,3.6-7.6,8v256.1c0,4.4,3.5,8,7.6,8h513c4.3,0,7.7-3.6,7.6-8V234.2
			C612.6,229.8,609.2,226.2,605,226.2z M599.7,483.7H108.3V237.9h491.4V483.7z"/>
		<rect x="108.3" y="237.9" class="st7" width="491.4" height="245.8"/>
		<g id="veilleuses">
			<g>
				<g>
					<circle class="st2" cx="96.8" cy="274.4" r="5.5"/>
					<circle class="st2" cx="96.8" cy="274.4" r="3.7"/>
				</g>
				<g>
					<g>
						<circle class="st8" cx="96.8" cy="272.4" r="5.5"/>
						<circle class="st9" cx="96.8" cy="272.4" r="3.7"/>
					</g>
				</g>
			</g>
			<g>
				<g>
					<circle class="st2" cx="96.8" cy="290.5" r="5.5"/>
					<circle class="st2" cx="96.8" cy="290.5" r="3.7"/>
				</g>
				<g>
					<g>
						<circle class="st3" cx="96.8" cy="288.5" r="5.5"/>
						<circle class="st3" cx="96.8" cy="288.5" r="3.7"/>
					</g>
				</g>
			</g>
		</g>
	</g>
	<g id="barre_haute">
		<g>
			<path class="st2" d="M630.2,217.3h-540c-3.3,0-5.9-2.7-5.9-5.9c0-3.3,2.7-5.9,5.9-5.9h539.9c3.3,0,5.9,2.7,5.9,5.9
				C636.1,214.6,633.4,217.3,630.2,217.3z"/>
		</g>
		<g>
			<path class="st5" d="M630.2,212.3h-540c-3.3,0-5.9-2.7-5.9-5.9c0-3.3,2.7-5.9,5.9-5.9h539.9c3.3,0,5.9,2.7,5.9,5.9
				C636.1,209.6,633.4,212.3,630.2,212.3z"/>
		</g>
	</g>
	<g id="boutons">
		<g id="B">
			<circle class="st2" cx="486.6" cy="568.8" r="20"/>
			<path class="st2" d="M499.8,571.7c-0.1-1.6-0.5-2.8-1.2-3.7c-0.8-1-2-1.5-3.7-1.7c0.8-0.3,1.4-0.8,1.8-1.5
				c0.4-0.6,0.5-1.3,0.6-2.2c0-0.1,0-0.2,0-0.4v-1.8c0-0.5,0-0.9-0.1-1.3c-0.2-1.3-0.9-2.3-1.8-3c-1.2-0.9-3.1-1.4-5.7-1.4h-12.6
				c-0.5,0-0.9,0.1-1.1,0.3s-0.3,0.5-0.3,1v24.3c0,0.4,0.1,0.7,0.2,0.9c0,0,0,0.1,0.1,0.1c0.1,0.1,0.2,0.2,0.4,0.2
				c0.2,0.1,0.4,0.1,0.7,0.1h15.1c2.6,0,4.5-0.5,5.7-1.2c1.3-1,1.9-2.6,1.9-4.7v-3.5C499.8,572,499.8,571.8,499.8,571.7z M484.5,561
				h3.4c0.5,0,0.9,0.2,1.1,0.4c0.3,0.2,0.4,0.6,0.4,1.1v1.1c0,0.5-0.2,0.8-0.4,1.1s-0.6,0.4-1.1,0.4h-3.4V561z M484.5,570.7h5.1
				c0.2,0,0.3,0,0.4,0.1c0.3,0.1,0.5,0.2,0.7,0.3c0.3,0.2,0.4,0.6,0.4,1.1v1.5c0,0.5-0.2,0.9-0.4,1.1c-0.2,0.3-0.6,0.4-1.1,0.4h-5.1
				V570.7z"/>
			<circle class="st3" cx="486.6" cy="564.3" r="20"/>
			<g>
				<path class="st10" d="M498.6,563.6c-0.3-0.4-0.8-0.8-1.3-1c-0.6-0.3-1.4-0.5-2.4-0.7c0.8-0.3,1.4-0.8,1.8-1.5
					c0.2-0.4,0.4-0.8,0.5-1.3c0.1-0.4,0.1-0.8,0.1-1.3V556c0-1.9-0.7-3.4-1.9-4.3c-1.2-0.9-3.1-1.4-5.7-1.4h-12.6
					c-0.5,0-0.9,0.1-1.1,0.3s-0.3,0.5-0.3,1v24.3c0,0.4,0.1,0.8,0.3,1c0.2,0.2,0.6,0.3,1.1,0.3h15.1c2.6,0,4.5-0.5,5.7-1.2
					c1.2-0.9,1.8-2.4,1.9-4.3c0-0.1,0-0.2,0-0.4v-3.5C499.8,565.9,499.4,564.6,498.6,563.6z M489,560.3c-0.2,0.3-0.6,0.4-1.1,0.4
					h-3.4v-4.1h3.4c0.5,0,0.9,0.2,1.1,0.4c0.3,0.2,0.4,0.6,0.4,1.1v1.1C489.4,559.7,489.2,560,489,560.3z M491.1,569.3
					c0,0.5-0.2,0.9-0.4,1.1c-0.1,0.2-0.4,0.3-0.7,0.4c-0.1,0-0.3,0-0.4,0h-5.1v-4.5h5.1c0.5,0,0.8,0.2,1.1,0.4s0.4,0.6,0.4,1.1
					V569.3z"/>
			</g>
		</g>
		<g id="A">
			<circle class="st2" cx="554.6" cy="543.7" r="20"/>
			<path class="st2" d="M566.7,542.1c-0.3-1-0.7-2.1-1.2-3.4l-3.4-8.5c-0.1-0.4-0.4-0.7-0.7-0.9s-0.7-0.3-1.2-0.3h-10.6
				c-0.5,0-1,0.1-1.3,0.3s-0.5,0.5-0.7,0.9l-3.4,8.5c-0.6,1.3-1,2.4-1.2,3.4c-0.3,1-0.4,1.8-0.4,2.6v9.9c0,0.2,0,0.5,0.1,0.7
				c0,0.1,0.1,0.2,0.2,0.3c0.1,0.1,0.4,0.2,0.6,0.3c0.1,0,0.3,0,0.5,0h5.8c0.5,0,0.9-0.1,1.1-0.3c0.2-0.2,0.3-0.5,0.3-1h-0.1v-5.3h7
				v5.3c0,0.4,0.2,0.8,0.4,1c0.3,0.2,0.7,0.3,1.2,0.3h6c0.5,0,0.9-0.1,1.1-0.3c0.2-0.2,0.3-0.4,0.3-0.8c0-0.1,0-0.1,0-0.2v-9.9
				C567.1,543.9,566.9,543.1,566.7,542.1z M553,538l0.4-1.2c0.2-0.3,0.3-0.4,0.3-0.5c0.1-0.1,0.2-0.2,0.4-0.2h1
				c0.1,0,0.3,0.1,0.4,0.2c0.1,0.1,0.2,0.3,0.3,0.5l0.4,1.2l1.5,4.5h-6.2L553,538z"/>
			<circle class="st3" cx="554.6" cy="539.2" r="20"/>
			<path class="st11" d="M566.7,537.6c-0.3-1-0.7-2.1-1.2-3.4l-3.4-8.5c-0.1-0.3-0.3-0.5-0.5-0.7c-0.1-0.1-0.1-0.1-0.2-0.2
				c-0.3-0.2-0.7-0.3-1.2-0.3h-10.6c-0.4,0-0.8,0.1-1,0.2c-0.1,0-0.2,0.1-0.3,0.1c-0.3,0.2-0.5,0.5-0.7,0.9l-3.4,8.5
				c-0.6,1.3-1,2.4-1.2,3.4c-0.3,1-0.4,1.8-0.4,2.6v9.9c0,0.4,0.1,0.8,0.3,1s0.6,0.3,1.1,0.3h5.8c0.5,0,0.9-0.1,1.1-0.3
				c0.1-0.1,0.2-0.2,0.2-0.3c0.1-0.2,0.1-0.4,0.1-0.7h-0.1v-5.3h7v5.3c0,0.4,0.1,0.8,0.4,1c0.3,0.2,0.7,0.3,1.2,0.3h6
				c0.5,0,0.9-0.1,1.1-0.3c0.2-0.2,0.3-0.5,0.3-1v-9.9C567.1,539.4,567,538.6,566.7,537.6z M551.5,538l1.9-5.7
				c0.2-0.2,0.3-0.4,0.3-0.5c0.1-0.1,0.2-0.2,0.4-0.2h1c0.1,0,0.3,0.1,0.4,0.2c0.1,0.1,0.2,0.3,0.3,0.5l1.9,5.7H551.5z"/>
		</g>
		<g id="bouton_select">
			<g>
				<g>
					<path class="st2" d="M342.3,590.7h-33.9c-4.1,0-7.5-3.4-7.5-7.5l0,0c0-4.1,3.4-7.5,7.5-7.5h33.9c4.1,0,7.5,3.4,7.5,7.5l0,0
						C349.8,587.3,346.4,590.7,342.3,590.7z"/>
				</g>
				<g>
					<path class="st3" d="M342.3,585.7h-33.9c-4.1,0-7.5-3.4-7.5-7.5l0,0c0-4.1,3.4-7.5,7.5-7.5h33.9c4.1,0,7.5,3.4,7.5,7.5l0,0
						C349.8,582.3,346.4,585.7,342.3,585.7z"/>
				</g>
			</g>
			<g>
				<path class="st11" d="M310.4,581h-3c-0.1,0-0.2,0-0.3-0.1s-0.1-0.1-0.1-0.2v-1.1c0-0.1,0-0.2,0.1-0.2c0.1-0.1,0.1-0.1,0.3-0.1
					h2.5c0.1,0,0.1,0,0.2-0.1s0.1-0.1,0.1-0.2c0-0.1,0-0.2-0.1-0.2c0,0-0.1-0.1-0.2-0.1l-1.4-0.2c-0.4-0.1-0.8-0.2-1.1-0.4
					c-0.3-0.2-0.4-0.6-0.4-1.1v-0.9c0-0.5,0.2-0.9,0.5-1.2s0.8-0.4,1.4-0.4h2.6c0.1,0,0.2,0,0.3,0.1c0.1,0.1,0.1,0.1,0.1,0.2v1.1
					c0,0.1,0,0.2-0.1,0.2c-0.1,0.1-0.1,0.1-0.3,0.1h-2.2c-0.1,0-0.1,0-0.2,0.1s-0.1,0.1-0.1,0.2s0,0.1,0.1,0.2s0.1,0.1,0.2,0.1
					l1.4,0.2c0.4,0.1,0.8,0.2,1.1,0.4c0.3,0.2,0.4,0.6,0.4,1.1v0.9c0,0.5-0.2,0.9-0.5,1.2C311.5,580.9,311,581,310.4,581z"/>
				<path class="st11" d="M318.1,581h-4.4c-0.1,0-0.2,0-0.3-0.1c-0.1-0.1-0.1-0.1-0.1-0.2v-5.8c0-0.1,0-0.2,0.1-0.2
					c0.1-0.1,0.1-0.1,0.3-0.1h4.4c0.1,0,0.2,0,0.3,0.1c0.1,0.1,0.1,0.1,0.1,0.2v1.1c0,0.1,0,0.2-0.1,0.2c-0.1,0.1-0.1,0.1-0.3,0.1
					h-2.6v0.7h1.8c0.1,0,0.2,0,0.3,0.1c0.1,0.1,0.1,0.1,0.1,0.2v1c0,0.1,0,0.2-0.1,0.2c-0.1,0.1-0.1,0.1-0.3,0.1h-1.8v0.8h2.6
					c0.1,0,0.2,0,0.3,0.1c0.1,0.1,0.1,0.1,0.1,0.2v1.1c0,0.1,0,0.2-0.1,0.2C318.3,581,318.2,581,318.1,581z"/>
				<path class="st11" d="M324.7,581h-4.8c-0.1,0-0.2,0-0.3-0.1c-0.1-0.1-0.1-0.1-0.1-0.2v-5.8c0-0.1,0-0.2,0.1-0.2
					c0.1-0.1,0.1-0.1,0.3-0.1h1.5c0.1,0,0.2,0,0.3,0.1s0.1,0.1,0.1,0.2v4.5h1.3v-1.5c0-0.1,0-0.2,0.1-0.2c0.1-0.1,0.1-0.1,0.3-0.1
					h1.4c0.1,0,0.2,0,0.3,0.1c0.1,0.1,0.1,0.1,0.1,0.2v2.8c0,0.1,0,0.2-0.1,0.2C324.9,581,324.8,581,324.7,581z"/>
				<path class="st11" d="M330.9,581h-4.4c-0.1,0-0.2,0-0.3-0.1c-0.1-0.1-0.1-0.1-0.1-0.2v-5.8c0-0.1,0-0.2,0.1-0.2
					c0.1-0.1,0.1-0.1,0.3-0.1h4.4c0.1,0,0.2,0,0.3,0.1c0.1,0.1,0.1,0.1,0.1,0.2v1.1c0,0.1,0,0.2-0.1,0.2c-0.1,0.1-0.1,0.1-0.3,0.1
					h-2.6v0.7h1.8c0.1,0,0.2,0,0.3,0.1c0.1,0.1,0.1,0.1,0.1,0.2v1c0,0.1,0,0.2-0.1,0.2c-0.1,0.1-0.1,0.1-0.3,0.1h-1.8v0.8h2.6
					c0.1,0,0.2,0,0.3,0.1c0.1,0.1,0.1,0.1,0.1,0.2v1.1c0,0.1,0,0.2-0.1,0.2C331.1,581,331,581,330.9,581z"/>
				<path class="st11" d="M336.8,581h-2.3c-0.8,0-1.4-0.2-1.8-0.5s-0.6-0.8-0.6-1.4v-2.8c0-0.6,0.2-1.1,0.6-1.4
					c0.4-0.3,1-0.5,1.8-0.5h2.3c0.1,0,0.2,0,0.3,0.1s0.1,0.1,0.1,0.2v1.1c0,0.1,0,0.2-0.1,0.2s-0.1,0.1-0.3,0.1h-1.9
					c-0.2,0-0.3,0-0.4,0.1s-0.1,0.2-0.1,0.3v2.1c0,0.2,0,0.3,0.1,0.3c0.1,0.1,0.2,0.1,0.4,0.1h1.9c0.1,0,0.2,0,0.3,0.1
					s0.1,0.1,0.1,0.2v1.1c0,0.1,0,0.2-0.1,0.2S336.9,581,336.8,581z"/>
				<path class="st11" d="M341.4,581h-1.5c-0.1,0-0.2,0-0.3-0.1c-0.1-0.1-0.1-0.1-0.1-0.2v-4.4h-1.4c-0.1,0-0.2,0-0.3-0.1
					c-0.1-0.1-0.1-0.1-0.1-0.2v-1.1c0-0.1,0-0.2,0.1-0.2c0.1-0.1,0.1-0.1,0.3-0.1h5c0.1,0,0.2,0,0.3,0.1c0.1,0.1,0.1,0.1,0.1,0.2
					v1.1c0,0.1,0,0.2-0.1,0.2c-0.1,0.1-0.1,0.1-0.3,0.1h-1.4v4.4c0,0.1,0,0.2-0.1,0.2S341.5,581,341.4,581z"/>
			</g>
		</g>
		<g id="bouton_start">
			<g>
				<g>
					<path class="st2" d="M410.3,590.7h-33.9c-4.1,0-7.5-3.4-7.5-7.5l0,0c0-4.1,3.4-7.5,7.5-7.5h33.9c4.1,0,7.5,3.4,7.5,7.5l0,0
						C417.8,587.3,414.4,590.7,410.3,590.7z"/>
				</g>
				<g>
					<path class="st3" d="M410.3,585.7h-33.9c-4.1,0-7.5-3.4-7.5-7.5l0,0c0-4.1,3.4-7.5,7.5-7.5h33.9c4.1,0,7.5,3.4,7.5,7.5l0,0
						C417.8,582.3,414.4,585.7,410.3,585.7z"/>
				</g>
			</g>
			<g>
				<path class="st10" d="M381.3,581h-3c-0.1,0-0.2,0-0.3-0.1s-0.1-0.1-0.1-0.2v-1.1c0-0.1,0-0.2,0.1-0.2c0.1-0.1,0.1-0.1,0.3-0.1
					h2.5c0.1,0,0.1,0,0.2-0.1s0.1-0.1,0.1-0.2c0-0.1,0-0.2-0.1-0.2c0,0-0.1-0.1-0.2-0.1l-1.4-0.2c-0.4-0.1-0.8-0.2-1.1-0.4
					c-0.3-0.2-0.4-0.6-0.4-1.1v-0.9c0-0.5,0.2-0.9,0.5-1.2s0.8-0.4,1.4-0.4h2.6c0.1,0,0.2,0,0.3,0.1c0.1,0.1,0.1,0.1,0.1,0.2v1.1
					c0,0.1,0,0.2-0.1,0.2c-0.1,0.1-0.1,0.1-0.3,0.1h-2.2c-0.1,0-0.1,0-0.2,0.1s-0.1,0.1-0.1,0.2s0,0.1,0.1,0.2s0.1,0.1,0.2,0.1
					l1.4,0.2c0.4,0.1,0.8,0.2,1.1,0.4c0.3,0.2,0.4,0.6,0.4,1.1v0.9c0,0.5-0.2,0.9-0.5,1.2C382.4,580.9,381.9,581,381.3,581z"/>
				<path class="st10" d="M387.4,581h-1.5c-0.1,0-0.2,0-0.3-0.1c-0.1-0.1-0.1-0.1-0.1-0.2v-4.4h-1.4c-0.1,0-0.2,0-0.3-0.1
					c-0.1-0.1-0.1-0.1-0.1-0.2v-1.1c0-0.1,0-0.2,0.1-0.2c0.1-0.1,0.1-0.1,0.3-0.1h5c0.1,0,0.2,0,0.3,0.1c0.1,0.1,0.1,0.1,0.1,0.2
					v1.1c0,0.1,0,0.2-0.1,0.2c-0.1,0.1-0.1,0.1-0.3,0.1h-1.4v4.4c0,0.1,0,0.2-0.1,0.2S387.6,581,387.4,581z"/>
				<path class="st10" d="M395.6,577.7c-0.1-0.2-0.2-0.5-0.3-0.8l-0.5-1.2l-0.3-0.8c-0.1-0.1-0.1-0.1-0.2-0.2
					c-0.1-0.1-0.2-0.1-0.3-0.1h-2.5c-0.1,0-0.2,0.1-0.3,0.1c-0.1,0-0.2,0.1-0.2,0.2l-0.3,0.8l-0.5,1.2c-0.1,0.3-0.2,0.6-0.3,0.8
					c-0.1,0.2-0.1,0.4-0.1,0.6v2.4c0,0.1,0,0.1,0.1,0.2c0.1,0.1,0.2,0.1,0.3,0.1h1.4c0.2,0,0.2,0,0.3-0.1c0.1,0,0.1-0.1,0.1-0.2
					v-1.3h1.6v1.3c0,0.1,0,0.1,0.1,0.2c0.1,0.1,0.2,0.1,0.3,0.1h1.3c0.2,0,0.2-0.1,0.3-0.1c0.1,0,0.1-0.1,0.1-0.2v-2.4
					C395.7,578.1,395.7,577.9,395.6,577.7z M392.1,577.8l0.4-1.4c0,0,0.1-0.1,0.2-0.1h0.4c0,0,0.1,0,0.1,0.1l0.4,1.4H392.1z"/>
				<path class="st10" d="M402.6,577.9c-0.2-0.2-0.5-0.4-0.8-0.4c0.2-0.1,0.3-0.2,0.4-0.4c0.1-0.1,0.1-0.3,0.1-0.6v-0.4
					c0-0.1,0-0.3,0-0.4c-0.1-0.3-0.2-0.5-0.4-0.7c-0.3-0.3-0.8-0.4-1.5-0.4h-3.1c-0.2,0-0.2,0-0.3,0.1c-0.1,0-0.1,0.1-0.1,0.2v5.8
					c0,0.1,0,0.1,0.1,0.2c0.1,0.1,0.2,0.1,0.3,0.1h1.5c0.1,0,0.2,0,0-0.1c0.1,0,0.1-0.1,0.1-0.2v-1.8h1.3c0.2,0,0.2,0,0.3,0.1
					s0.1,0.2,0.1,0.3v1.4c0,0.1,0,0.1,0.1,0.2c0.1,0.1,0.2,0.1,0.3,0.1h1.5c0.2,0,0.2,0,0.3-0.1c0.1,0,0.1-0.1,0.1-0.2v-1.9
					C402.9,578.4,402.8,578.1,402.6,577.9z M400.2,577c0,0.1-0.1,0.2-0.1,0.3s-0.1,0.1-0.3,0.1h-0.7v-1.1h0.7c0.1,0,0.2,0,0.3,0.1
					c0.1,0.1,0.1,0.2,0.1,0.3V577z"/>
				<path class="st10" d="M406.9,581h-1.5c-0.1,0-0.2,0-0.3-0.1c-0.1-0.1-0.1-0.1-0.1-0.2v-4.4h-1.4c-0.1,0-0.2,0-0.3-0.1
					c-0.1-0.1-0.1-0.1-0.1-0.2v-1.1c0-0.1,0-0.2,0.1-0.2c0.1-0.1,0.1-0.1,0.3-0.1h5c0.1,0,0.2,0,0.3,0.1c0.1,0.1,0.1,0.1,0.1,0.2
					v1.1c0,0.1,0,0.2-0.1,0.2c-0.1,0.1-0.1,0.1-0.3,0.1h-1.4v4.4c0,0.1,0,0.2-0.1,0.2S407,581,406.9,581z"/>
			</g>
		</g>
	</g>
	<g id="flèches">
		<g id="Flèches">
			<g id="ombre_portée">
				<path class="st2" d="M235.5,553c0,7.9-6.4,14.3-14.3,14.3H207v14.5c0,7.9-6.4,14.3-14.3,14.3s-14.3-6.4-14.3-14.3v-14.5h-14.3
					c-1,0-1.9-0.1-2.9-0.3c-6.5-1.3-11.4-7.1-11.4-14c0-2.4,0.6-4.7,1.7-6.7c1.2-2.2,2.9-4.1,5.1-5.4c2.2-1.4,4.8-2.2,7.5-2.2h14.3
					v-14.3c0-3.7,1.4-7.1,3.7-9.6c2.6-2.9,6.4-4.7,10.6-4.7c6,0,11.1,3.7,13.2,8.9c0.7,1.7,1,3.5,1,5.3v14.3h14.3
					C229.1,538.8,235.5,545.2,235.5,553z"/>
			</g>
			<g id="flèches_00000176016824207883828740000004494273202121624994_">
				<path class="st3" d="M235.5,545.2c0,7.9-6.4,14.3-14.3,14.3H207V574c0,7.9-6.4,14.3-14.3,14.3s-14.3-6.4-14.3-14.3v-14.5h-14.3
					c-1,0-1.9-0.1-2.9-0.3c-6.5-1.3-11.4-7.1-11.4-14c0-2.4,0.6-4.7,1.7-6.7c1.2-2.2,2.9-4.1,5.1-5.4c2.2-1.4,4.8-2.2,7.5-2.2h14.3
					v-14.3c0-3.7,1.4-7.1,3.7-9.6c2.6-2.9,6.4-4.7,10.6-4.7c6,0,11.1,3.7,13.2,8.9c0.7,1.7,1,3.5,1,5.3v14.3h14.3
					C229.1,530.9,235.5,537.3,235.5,545.2z"/>
				<g>
					<g id="droite">
						<circle class="st12" cx="220.9" cy="544.6" r="10.3"/>
						<path class="st13" d="M227.8,543.3l-9.3-5.4c-1-0.6-2.3,0.1-2.3,1.3V550c0,1.2,1.3,1.9,2.3,1.3l9.3-5.4
							C228.8,545.3,228.8,543.9,227.8,543.3z"/>
					</g>
					<g id="gauche">
						<circle class="st12" cx="164.3" cy="545.4" r="10.3"/>
						<path class="st13" d="M157.4,544l9.3-5.4c1-0.6,2.3,0.1,2.3,1.3v10.8c0,1.2-1.3,1.9-2.3,1.3l-9.3-5.4
							C156.4,546.1,156.4,544.6,157.4,544z"/>
					</g>
					<g id="haut">
						<circle class="st12" cx="192.7" cy="516.5" r="10.3"/>
						<path class="st13" d="M191.4,509.6l-5.4,9.3c-0.6,1,0.1,2.3,1.3,2.3h10.8c1.2,0,1.9-1.3,1.3-2.3l-5.4-9.3
							C193.4,508.6,192,508.6,191.4,509.6z"/>
					</g>
					<g id="bas">
						<circle class="st12" cx="192.7" cy="573" r="10.3"/>
						<path class="st13" d="M191.4,580l-5.4-9.3c-0.6-1,0.1-2.3,1.3-2.3h10.8c1.2,0,1.9,1.3,1.3,2.3L194,580
							C193.4,581,192,581,191.4,580z"/>
					</g>
				</g>
			</g>
		</g>
		<path id="lumière_flèches" class="st14" d="M178.4,571.4v-11.9h-14.3c-1,0-1.9-0.1-2.9-0.3l3.3-3.5l3.2-3.5l0,0l1.1-1.2l5.7-6.1
			l16.9-18.2l5.2-5.6l2.4-2.6l3.7-3.9l3.1-3.3c0.7,1.7,1,3.5,1,5.3v14.3h9.2L178.4,571.4z"/>
	</g>
</g>
</svg>
