<?xml version="1.0" encoding="UTF-8"?><svg id="Calque_2" xmlns="http://www.w3.org/2000/svg" xmlns:xlink="http://www.w3.org/1999/xlink" viewBox="0 0 585.52 471.86"><defs><style>.cls-1{fill:#fff;stroke:#000;stroke-miterlimit:10;stroke-width:6.6px;}.cls-2,.cls-3,.cls-4,.cls-5,.cls-6,.cls-7,.cls-8{stroke-width:0px;}.cls-3{fill:url(#Dégradé_sans_nom_7);}.cls-4{fill:url(#Dégradé_sans_nom_11-2);}.cls-5{fill:url(#Dégradé_sans_nom_7-2);}.cls-6{fill:url(#Dégradé_sans_nom_16-2);}.cls-7{fill:url(#Dégradé_sans_nom_11);}.cls-8{fill:url(#Dégradé_sans_nom_16);}</style><linearGradient id="Dégradé_sans_nom_7" x1="72.23" y1="324.85" x2="72.23" y2="188.39" gradientUnits="userSpaceOnUse"><stop offset="0" stop-color="#00bfff"/><stop offset=".23" stop-color="#00b2ec"/><stop offset=".69" stop-color="#0092be"/><stop offset="1" stop-color="#007a9b"/></linearGradient><linearGradient id="Dégradé_sans_nom_16" x1="151.24" y1="324.5" x2="151.24" y2="188.39" gradientUnits="userSpaceOnUse"><stop offset="0" stop-color="gold"/><stop offset=".41" stop-color="#ecc500"/><stop offset="1" stop-color="#cca602"/></linearGradient><linearGradient id="Dégradé_sans_nom_11" x1="230.57" y1="324.85" x2="230.57" y2="188.39" gradientUnits="userSpaceOnUse"><stop offset="0" stop-color="#ff2b00"/><stop offset=".23" stop-color="#ec2700"/><stop offset=".69" stop-color="#be1e00"/><stop offset="1" stop-color="#9b1700"/></linearGradient><linearGradient id="Dégradé_sans_nom_7-2" x1="316.42" y1="324.5" x2="316.42" y2="188.72" xlink:href="#Dégradé_sans_nom_7"/><linearGradient id="Dégradé_sans_nom_16-2" x1="402.03" y1="324.85" x2="402.03" y2="188.39" xlink:href="#Dégradé_sans_nom_16"/><linearGradient id="Dégradé_sans_nom_11-2" x1="489.35" x2="489.35" xlink:href="#Dégradé_sans_nom_11"/></defs><g id="Calque_1-2"><g id="Logo_noir_blanc"><g id="_1"><g id="Hardware"><path id="Hardware-2" class="cls-1" d="m572.47,244.26c-.44-8.51-.81-16.41-1.14-23.76-.31-6.89-.46-12.96-.46-18.04,0-3.05.05-5.64.15-7.8h0s11.19-44.79,11.19-44.79c.02-.09-.05-.18-.15-.17l-25.63,2.62c2.93-8.58,4.38-18.32,4.38-29.19,0-9.72-1.8-18.57-5.43-26.6-3.63-8.01-8.25-15.44-13.86-22.31-5.63-6.86-11.84-13.31-18.59-19.29-6.78-6.03-13.22-11.79-19.31-17.31-6.09-5.52-11.44-11.02-16.02-16.45-4.58-5.41-7.52-11.11-8.87-16.98l-46.9,14.3c.4,3.41,1.01,6.69,1.87,9.83s2.05,6.27,3.56,9.31l7.72,104.96c-.95-.4-1.91-.81-2.86-1.3-.95-.46-1.91-.97-2.86-1.56l-1.32,13.13-8.51-.86,4.69-12.85c-4-.57-8.38-1.25-13.16-2-4-.77-8.71-1.65-14.15-2.73-5.43-1.03-11.31-2.33-17.6-3.85,5.72-2.09,11.15-4.84,16.3-8.27s9.72-7.55,13.73-12.32c4-4.77,7.19-10.05,9.59-15.86,2.38-5.83,3.56-12.08,3.56-18.74,0-7.24-1.14-13.42-3.43-18.59-2.29-5.15-5.24-9.64-8.87-13.44-3.63-3.81-7.52-7.19-11.73-10.14-4.2-2.97-8.25-5.83-12.14-8.6-3.92-2.75-7.35-5.76-10.3-9-2.97-3.26-4.93-7.06-5.87-11.42l-47.47,4.27c-1.72,7.24-3.23,15.33-4.58,24.33-1.14,7.59-2.2,16.61-3.15,26.99-.95,10.43-1.43,21.78-1.43,34.21v3.15l.29,6.27v3.15c-.2-.2-.37-.29-.57-.29l-.29-.29c-.2-.18-.37-.29-.57-.29l-3.15-2c-.2-.2-.66-.48-1.43-.86v30.89c.04.06.06.1.1.16,2.48,1.01,5.29,2.56,8.48,4.71.77,6.34,1.76,12.74,2.95,19.2-4.36.22-8.82.4-13.27.46-1.17.02-2.33.04-3.48.09.04-1.36.07-2.68.07-4,0-4.6-.2-9.2-.57-13.88-.37-4.66-.95-9.2-1.72-13.6,2.29-1.72,4-3.15,5.15-4.27.57-.59,1.06-1.17,1.43-1.74l-10.87-34.01-1.14.84c-.37.4-.77.7-1.14.99-.37.29-.95.73-1.72,1.32-3.81-13.95-7.63-27.06-11.44-39.36-3.81-12.3-5.72-23.47-5.72-33.59,0-1.54.04-2.95.15-4.29.09-1.34.22-2.68.42-4h-61.49c.77,2.46,1.14,5.63,1.14,9.44,0,4.58-.57,9.61-1.72,15.18-1.14,5.5-2.57,11.4-4.29,17.58-1.72,6.2-3.67,12.67-5.85,19.42-2.2,6.78-4.36,13.6-6.45,20.46-2.49-1.72-4.49-3.15-6.01-4.27-.75-.59-1.43-1.17-2-1.74l-10.3,34.89c.57.75,1.25,1.52,2,2.29.77.59,1.63,1.32,2.57,2.29.95.95,2.2,1.89,3.72,2.86-1.91,9.26-2.97,17.8-3.12,25.63l-16.83,4.14c-.42-1.39-.81-2.82-1.21-4.31,4.58-.97,8.01-1.54,10.3-1.69,1.34-.4,2.57-.68,3.72-.88l-3.74-29.98-1.69-13.49c-2.66.77-5.28,1.39-7.85,1.87-2.57.46-5.19.99-7.88,1.56-.57-6.29-.86-12.78-.86-19.42,0-11.84.86-24.62,2.57-38.34,1.72-13.73,4.69-28.31,8.87-43.76h-47.47c-1.72,7.24-3.15,15.33-4.29,24.33-1.14,7.59-2.18,16.61-3.15,26.99-.95,10.43-1.43,21.78-1.43,34.21,0,3.43.04,6.89.15,10.41.09,3.54.24,7.11.42,10.76-4,.15-7.9.31-11.73.42-3.81.09-7.52.13-11.15.13-.37-3.83-.7-7.88-.99-12.17-.29-4.29-.44-8.6-.44-12.98,0-11.84.86-24.57,2.57-38.21,1.72-13.62,4.69-28.27,8.87-43.89h-47.19c-1.72,7.24-3.23,15.33-4.58,24.33-1.14,7.59-2.18,16.61-3.15,26.99-.95,10.43-1.43,21.78-1.43,34.21,0,3.21.04,6.56.15,9.99.09,3.43.24,6.86.42,10.3-.95-.2-2.09-.29-3.43-.29-.37-.2-.75-.29-1.14-.29v36.32h.57l1.14.29h.57l4.29.88c.97,0,1.63.07,2,.26.15.97.31,1.89.46,2.84h-7.33l-3.19,27.15c-1.45,2.16-3.21,4.44-5.26,6.82-3.3,3.85-6.8,7.9-10.47,12.1-4.8,5.5-9.28,11.53-13.33,17.88-4.51,7.06-8.27,14.81-11.18,23.01-3.34,9.39-5.04,19.69-5.04,30.56,0,8.89,1.3,17.97,3.89,27.04,2.95,10.27,7.79,19.75,14.43,28.11,6.84,8.67,15.6,15.82,26.05,21.21,2.97,1.56,6.09,2.88,9.35,4.03.44,8.62,1.69,17.18,3.74,25.63,2.64,10.82,5.57,21.18,8.8,31.06,3.26,9.88,6.18,19.2,8.82,28,2.62,8.8,3.94,16.78,3.94,23.98,0,1.25-.09,2.46-.26,3.67-.18,1.14-.35,2.29-.53,3.39l55.74-8.47c-.88-2.64-1.32-6.03-1.32-10.12,0-4.53.4-9.79,1.19-15.75.77-5.96,1.96-12.56,3.54-19.78,2.44,7.55,4.69,14.59,6.71,21.18,2,6.58,3.01,13.18,3.01,19.78,0,2.64-.26,5.39-.79,8.21l57.31,4.95c-.7-2.02-1.03-4.77-1.03-8.21,0-7.08,1.47-15.51,4.47-25.3,2.95-9.77,6.18-20.08,9.68-30.91,0-.02.02-.11.04-.15,3.5-10.89,6.73-21.93,9.72-33.06,1.25-4.71,2.24-9.26,2.95-13.64,6.97-.29,11.86-.81,18.87-2.75l-1.19,3.17c-.84,2.44-1.72,4.93-2.62,7.46-2.02,5.57-4,11.18-5.92,16.83-2.29-1.39-4.14-2.6-5.52-3.54-.7-.46-1.32-.92-1.85-1.41l-9.46,28.73c.53.59,1.14,1.23,1.85,1.85.68.48,1.47,1.1,2.35,1.89s2.02,1.56,3.41,2.35c-1.91,8.34-2.88,15.9-2.88,22.81,0,4.86.57,9.44,1.72,13.64,1.12,4.25,3.1,8.18,5.92,11.77l39.16-6.82c-1.76-2.95-2.97-6.4-3.67-10.23-.7-3.85-1.06-8.05-1.06-12.58v-3.19c0-1.01.09-2.16.26-3.41,1.94.15,3.85.29,5.79.35,1.91.11,4.03.13,6.31.13h6.95c2.2,0,4.36-.15,6.45-.48.18,1.58.26,3.1.26,4.6v4.58c0,5.19-.44,10.21-1.32,15.09-.88,4.84-2.27,9.48-4.2,13.88l40.74,6.56c2.11-5.81,3.65-11.57,4.62-17.29.95-5.72,1.43-11.4,1.43-17.05,0-3.76-.18-7.55-.53-11.4-.35-3.85-.88-7.57-1.56-11.2,2.09-1.41,3.67-2.55,4.73-3.52.53-.48.95-.95,1.32-1.39l-10.01-28.03-1.03.7c-.35.31-.7.59-1.06.84-.35.24-.88.57-1.58,1.06-2.42-7.92-4.84-15.53-7.28-22.79l-1.54-4.4c3.12-.46,4.62-.51,7.44-.73,3.06-.24,5.9-.4,8.45-.51,2-.04,4.38.04,5.83.02l8.45.66c-.11.95-.2,1.91-.31,2.9-.88,8.56-1.32,17.95-1.32,28.14v2.57l.26,5.17v2.6c-.18-.15-.35-.24-.53-.24l-.26-.24c-.18-.15-.35-.22-.51-.22l-2.9-1.65c-.18-.15-.62-.4-1.32-.7v25.43c.7.29,1.41.59,2.11.92,1.74.77,3.67,1.83,5.79,3.08,1.06,7.66,2.49,15.47,4.33,23.38,1.85,7.92,4.25,15.86,7.24,23.87l47.32-6.56-2.38-3.81c-.7-1.25-1.54-2.79-2.49-4.69-.97-1.89-1.98-4.09-3.04-6.6,6.31,3.15,12.28,5.92,17.88,8.36,5.61,2.42,10.34,4.38,14.19,5.76l15.22-37.27.81-2.02c-3.67-.44-7.72-.99-12.1-1.65-3.67-.59-8.01-1.36-13-2.22-4.99-.88-10.38-1.94-16.17-3.17,5.26-1.74,10.25-4,14.98-6.84,4.73-2.79,8.93-6.2,12.63-10.12,3.67-3.92,6.6-8.27,8.8-13.02,1.43-3.17,2.4-6.45,2.9-9.9.07-.51.13-.97.18-1.5.13-1.32.2-2.66.2-4.05,0-5.85-.99-10.87-3.04-15.07l-3.94-7.04,39.77-6.6-4.86,4.16-.11.09c-2.16,1.56-5.46,4.6-7.41,6.23-4.51,3.72-8.23,7.77-11.2,12.1-2.22,3.26-3.63,6.78-4.18,10.6-.09.55-.15,1.1-.2,1.67-.07.73-.09,1.47-.09,2.24,0,4.25.77,7.94,2.29,11.07,1.52,3.15,3.59,5.76,6.18,7.9,2.57,2.13,5.59,3.83,9.02,5.15,3.43,1.28,7.04,2.38,10.85,3.3-4.27.77-8.27,2.02-11.99,3.76-3.74,1.76-7.02,3.81-9.83,6.18-2.82,2.35-5.02,4.95-6.62,7.79-.4.7-.75,1.39-1.06,2.11-.9,2.16-1.34,4.38-1.34,6.69,0,6.82,2.4,12.34,7.19,16.54,4.8,4.18,10.82,7.46,18.06,9.81,7.22,2.35,15.07,3.96,23.52,4.8,8.47.84,16.26,1.25,23.43,1.25,5.48,0,10.8-.33,15.99-1.01,5.17-.7,9.75-1.41,13.71-2.18,4.73-1.08,9.13-2.2,13.24-3.43l-11.64-38.83c-2.9,1.83-6.09,3.5-9.59,5.02-3.06,1.23-6.64,2.35-10.76,3.43-4.11,1.06-8.6,1.61-13.46,1.61-7.33,0-13.31-.62-17.95-1.85-4.64-1.19-6.95-2.66-6.95-4.33,0-1.06,1.47-1.96,4.44-2.73,2.97-.75,6.56-1.39,10.74-1.83,4.2-.46,8.65-.77,13.38-.92,4.71-.15,8.91-.24,12.56-.24v-27.63c-3.06,0-6.62-.22-10.74-.68-4.11-.46-8.01-1.25-11.66-2.4-3.65-1.12-6.78-2.6-9.37-4.36-2.57-1.72-3.87-3.98-3.87-6.73s.99-5.15,2.97-7.19c1.98-2.07,4.18-3.76,6.62-5.13,2.75-1.52,5.87-2.84,9.37-3.89l4.33,22.61h33.59v-20.19l13.17,2.36s.09-.03.09-.08l1.67-37.59c.35-7.9.53-15.95.53-23.85,0-9.9-.18-19.89-.53-29.61-.33-9.44-.73-18.7-1.17-27.45Zm-449.32,111.31c-.29,4.11-.77,8.36-1.41,12.72-1.21,8.4-2.57,16.43-4.07,24.11-1.5,7.7-2.84,14.65-4.07,20.83-1.23,6.2-1.85,10.78-1.85,13.75-.18-3.61-1.01-8.34-2.49-14.23-1.5-5.87-3.08-12.43-4.73-19.64-1.67-7.19-3.21-14.85-4.6-22.9-.79-4.53-.9-9.46-1.23-13.9,0,0,12.28-2.42,15.86-3.23l.84-.2c3.34-.88,4.6-1.23,7.74-2.27v4.97Zm-19.91-194.71v-8.76l26.4,2.18,1.96,6.58h-28.36Zm88.54,194.4c-.29,4.22-.77,8.56-1.41,13.02-1.23,8.4-2.6,16.43-4.09,24.11-1.5,7.7-2.84,14.65-4.07,20.83-1.23,6.2-1.85,10.78-1.85,13.75-.18-3.61-1.08-7.92-2.75-12.91-1.67-5.04-3.52-10.58-5.52-16.72-2.02-6.12-3.81-12.72-5.39-19.86-1.52-6.78-2.31-13.95-2.35-21.49,5.21-.44,10.38-1.39,15.42-2.77,4.33-1.21,8.47-2.75,12.41-4.64l-.4,6.69Zm58.32-278.04c1.8-8.1,2.71-14.32,2.71-18.72.37,4.95,1.47,11.44,3.3,19.45,1.8,8.01,3.76,16.98,5.85,26.9-1.34.15-2.71.31-4.14.4-1.43.13-2.9.15-4.44.15l-.29-.29c-1.52,0-2.99-.04-4.42-.13-1.43-.11-2.82-.26-4.16-.42,1.91-10.14,3.76-19.23,5.59-27.34Zm17.58,75.65c0,.46,0,.95-.02,1.41h-28.2c-.07-1.45-.09-2.97-.09-4.55v-3.87c0-1.23.09-2.62.29-4.14,2.11.18,4.2.33,6.29.42,2.09.11,4.38.15,6.86.15h7.59c2.38,0,4.71-.2,7-.57.2,1.89.29,3.76.29,5.57v5.59Zm21.14,240.36c-1.32.07-2.68.11-4.07.11l-.26-.24c-1.41,0-2.77-.02-4.09-.09-1.3-.09-2.57-.22-3.81-.37,1.76-8.32,3.45-15.79,5.13-22.44.68-2.75,1.23-5.21,1.63-7.44.59-3.21.88-5.87.88-8.01.18,2.13.55,4.62,1.08,7.48.51,2.55,1.14,5.39,1.94,8.54,1.67,6.58,3.45,13.95,5.39,22.11-1.23.15-2.49.29-3.81.35Zm73.87-241.13l-.11-2.77,4.64,2.44-4.53.33Zm18.1-50.71c-3.15,4.4-6.93,7.72-11.31,10.03-.57-6.71-.86-13.66-.86-20.88,0-9.75.57-20.04,1.72-30.91,4.38,4.18,8.01,8.54,10.87,13.02,2.86,4.47,4.29,9.37,4.29,14.72,0,4.95-1.56,9.61-4.71,14.01Zm21.05,288.64c-2.88,3.61-6.36,6.36-10.38,8.25-.53-5.5-.79-11.22-.79-17.18,0-8.01.53-16.46,1.58-25.41,4.03,3.45,7.37,7.02,9.99,10.71,2.64,3.67,3.96,7.72,3.96,12.1,0,4.09-1.45,7.94-4.36,11.53Zm99.35-250.32c-3.92,3.43-8.82,5.9-14.74,7.46l-1.14-55.5c6.09,5.9,11.24,11.68,15.44,17.29,4.2,5.63,6.29,11.2,6.29,16.76,0,5.87-1.96,10.56-5.85,13.99Z"/><g id="gonflement_hardware"><path class="cls-2" d="m94.26,14.14l-.28-.07v2.89c.58-.16,1.17-.29,1.76-.39.14-.02.27-.04.41-.06.18-.03.18-.03.01,0,.07,0,.14-.02.21-.02.3-.03.6-.06.9-.08.6-.04,1.2-.04,1.8-.02.28.01.55.03.83.05.14.01.28.03.41.04.09.01.18.02.28.03-.17-.02-.17-.02.01,0l-.9-2.2c-.92,1.92-1.62,3.93-2.05,6.01-.16.77.22,1.66,1.05,1.85.75.17,1.68-.23,1.85-1.05.2-.95.45-1.9.75-2.82.15-.45.31-.9.49-1.34.01-.03.15-.37.08-.2s.07-.16.08-.2c.11-.25.22-.5.34-.74.21-.45.27-.87.08-1.33-.16-.39-.53-.8-.97-.87-2.76-.4-5.52-.28-8.22.45-1.42.39-1.44,2.52,0,2.89l.28.07c.76.2,1.66-.25,1.85-1.05s-.24-1.63-1.05-1.85h0Z"/><path class="cls-2" d="m97.79,26.03c1.93,0,1.93-3,0-3s-1.93,3,0,3h0Z"/><path class="cls-2" d="m163.82,16.51l3.8-.51,1.9-.26c.15-.02.3-.04.46-.06.13-.02.1-.01-.08.01.06,0,.13-.01.19-.01.12,0,.41.06-.02-.02l.09.03c-.36-.11-.59-.35-.7-.71.02-.39,0-.49-.06-.31-.03.07-.05.14-.08.21-.05.14-.11.29-.16.43-.11.29-.22.57-.33.86-.23.62-.47,1.24-.7,1.86-.45,1.19-.9,2.38-1.35,3.57-.28.74.31,1.68,1.05,1.85.85.19,1.55-.26,1.85-1.05.52-1.38,1.05-2.76,1.57-4.14.27-.71.54-1.43.81-2.14.16-.41.33-.8.36-1.25.03-.54-.13-1.1-.52-1.49-.52-.53-1.25-.73-1.99-.67-.82.07-1.65.22-2.47.33l-4.41.59c-.78.11-1.27,1.15-1.05,1.85.28.86,1.01,1.16,1.85,1.05h0Z"/><path class="cls-2" d="m166.59,25.76l-.11.11c-.15.14-.25.3-.31.48-.09.18-.14.37-.13.58,0,.21.04.4.13.58.06.19.16.35.31.48l.3.23c.23.14.49.2.76.2l.4-.05c.25-.07.47-.2.66-.39l.11-.11c.15-.14.25-.3.31-.48.09-.18.14-.37.13-.58,0-.21-.04-.4-.13-.58-.06-.19-.16-.35-.31-.48l-.3-.23c-.23-.14-.49-.2-.76-.2l-.4.05c-.25.07-.47.2-.66.39h0Z"/><path class="cls-2" d="m271.91,17.3l5.41.79-1.1-1.45c.06,2.17.12,4.34.17,6.51.02.78.68,1.54,1.5,1.5s1.52-.66,1.5-1.5c-.06-2.17-.12-4.34-.17-6.51-.02-.59-.45-1.35-1.1-1.45l-5.41-.79c-.42-.06-.78-.07-1.16.15-.31.18-.61.54-.69.9-.16.71.22,1.72,1.05,1.85h0Z"/><path class="cls-2" d="m278.4,29.56l.22-.11c.17-.09.32-.22.42-.39.13-.14.22-.31.27-.51.06-.2.07-.4.03-.6,0-.2-.07-.39-.18-.56l-.23-.3c-.19-.19-.41-.31-.66-.39l-.4-.05c-.27,0-.52.07-.76.2l-.22.11c-.17.09-.32.22-.42.39-.13.14-.22.31-.27.51-.06.2-.07.4-.03.6,0,.2.07.39.18.56l.23.3c.19.19.41.31.66.39l.4.05c.27,0,.52-.07.76-.2h0Z"/><path class="cls-2" d="m370.08,13.62l5.75-.57c.75-.07,1.37-.51,1.47-1.3.09-.68-.34-1.51-1.07-1.65-.65-.12-1.25-.03-1.73.46-.36.36-.55.87-.54,1.37.02.81.57,1.62.91,2.33.6,1.26,1.21,2.51,1.81,3.77.34.71,1.41.95,2.05.54.73-.47.9-1.29.54-2.05-.42-.88-.84-1.75-1.27-2.63-.21-.43-.41-.85-.62-1.28-.1-.21-.21-.43-.31-.64-.05-.09-.09-.19-.14-.28-.08-.16-.09-.19-.04-.08.11.24.1.5-.05.78l-.54.54-.18.06h-.8l.1.02.4-2.95-5.75.57c-.78.08-1.54.63-1.5,1.5.03.75.66,1.58,1.5,1.5h0Z"/><path class="cls-2" d="m379.36,21.33l.11.11c.14.15.3.25.48.31.18.09.37.14.58.13.21,0,.4-.04.58-.13.19-.06.35-.16.48-.31l.23-.3c.14-.23.2-.49.2-.76l-.05-.4c-.07-.25-.2-.47-.39-.66l-.11-.11c-.14-.15-.3-.25-.48-.31-.18-.09-.37-.14-.58-.13-.21,0-.4.04-.58.13-.19.06-.35.16-.48.31l-.23.3c-.14.23-.2.49-.2.76l.05.4c.07.25.2.47.39.66h0Z"/><path class="cls-2" d="m470.06,15.87l5.1-1.28-1.69-.69c.73,1.02,1.39,2.09,1.98,3.2.29.54.55,1.1.8,1.66.03.07.06.14.09.21-.04-.1-.04-.1,0,0,.06.14.12.28.17.43.12.31.24.62.35.94.26.74,1.04,1.31,1.85,1.05.73-.24,1.33-1.05,1.05-1.85-.89-2.54-2.11-4.96-3.68-7.15-.4-.56-1-.86-1.69-.69l-5.1,1.28c-.76.19-1.29,1.09-1.05,1.85s1.03,1.25,1.85,1.05h0Z"/><path class="cls-2" d="m479.92,22.21l-.11.11c-.15.14-.25.3-.31.48-.09.18-.14.37-.13.58,0,.21.04.4.13.58.06.19.16.35.31.48l.3.23c.23.14.49.2.76.2l.4-.05c.25-.07.47-.2.66-.39l.11-.11c.15-.14.25-.3.31-.48.09-.18.14-.37.13-.58,0-.21-.04-.4-.13-.58-.06-.19-.16-.35-.31-.48l-.3-.23c-.23-.14-.49-.2-.76-.2l-.4.05c-.25.07-.47.2-.66.39h0Z"/><path class="cls-2" d="m421.27,141.69l-.44-.09c-.77-.16-1.66.22-1.85,1.05-.18.77.23,1.65,1.05,1.85,1.92.46,3.84.92,5.76,1.38l-.9-2.2c-.39.86-.79,1.72-1.18,2.58-.17.38-.27.74-.15,1.16.1.35.36.73.69.9.66.35,1.7.22,2.05-.54.39-.86.79-1.72,1.18-2.58.21-.45.27-.87.08-1.33-.17-.41-.52-.76-.97-.87-1.92-.46-3.84-.92-5.76-1.38l-.8,2.89.44.09c.77.16,1.66-.22,1.85-1.05.17-.75-.23-1.68-1.05-1.85h0Z"/><path class="cls-2" d="m424.64,151.21l-.02-.11c-.05-.2-.14-.37-.27-.51-.11-.16-.25-.29-.42-.39-.17-.11-.36-.17-.56-.18-.2-.04-.4-.04-.6.03l-.36.15c-.23.13-.4.31-.54.54l-.15.36c-.07.27-.07.53,0,.8l.02.11c.05.2.14.37.27.51.11.16.25.29.42.39.17.11.36.17.56.18.2.04.4.04.6-.03l.36-.15c.23-.13.4-.31.54-.54l.15-.36c.07-.27.07-.53,0-.8h0Z"/><path class="cls-2" d="m565.23,160.57l7.46-1.37-1.85-1.85c-.55,1.55-1.11,3.11-1.66,4.66-.26.74.3,1.67,1.05,1.85.84.19,1.56-.26,1.85-1.05.55-1.55,1.11-3.11,1.66-4.66.18-.49-.03-1.1-.39-1.46-.4-.4-.92-.49-1.46-.39l-7.46,1.37c-.77.14-1.28,1.12-1.05,1.85.27.83,1.02,1.2,1.85,1.05h0Z"/><path class="cls-2" d="m569.42,169.43c1.93,0,1.93-3,0-3s-1.93,3,0,3h0Z"/><path class="cls-2" d="m547.43,375.5l3.08-.04c1.11-.01,2.32-.02,3.12-.92s.81-1.96.82-3.06c0-1.03.02-2.07.02-3.1,0-.78-.69-1.54-1.5-1.5s-1.49.66-1.5,1.5c0,.92-.01,1.84-.02,2.77,0,.39,0,.79-.02,1.18,0,.05,0,.11-.01.16l.03-.24c0,.08-.03.16-.05.24-.01.05-.03.1-.04.15l.09-.21c0,.06-.22.34-.04.11.09-.11.09-.12.02-.04.19-.14.24-.17.14-.11-.29.16.21-.04.06,0-.08.02-.16.04-.24.06-.12.02-.06.01.19-.02-.06,0-.11.01-.17.01-.41.02-.82.02-1.22.02l-2.75.03c-.78,0-1.54.68-1.5,1.5s.66,1.51,1.5,1.5h0Z"/><path class="cls-2" d="m552.31,362.38s-.02,0-.03,0l.4.05s-.04,0-.05-.01l.36.15s-.03-.02-.05-.03l.3.23s-.03-.03-.04-.05l.23.3s-.03-.04-.04-.07l.15.36s-.02-.06-.03-.09l.05.4s0-.06,0-.09l-.05.4s0-.05.02-.07l-.15.36s.02-.04.03-.05l-.23.3s.02-.02.03-.03l-.3.23s.03-.02.05-.03l-.36.15s.04-.01.06-.02l-.4.05s.04,0,.06,0l-.4-.05s.04,0,.06.02l-.36-.15s.04.02.06.04l-.3-.23s.04.04.06.06l-.23-.3s.03.05.05.08l-.15-.36s.02.05.02.08l-.05-.4s0,.04,0,.07l.05-.4s0,.04-.02.06l.15-.36s-.02.03-.03.04l.23-.3s-.01.01-.02.02c-.15.14-.25.3-.31.48-.09.18-.14.37-.13.58,0,.21.04.4.13.58.06.19.16.35.31.48l.3.23c.23.14.49.2.76.2l.4-.05c.25-.07.47-.2.66-.39,0,0,0-.01.01-.02.03-.04.21-.26.24-.31,0,0,0,0,0,0,0-.01.01-.02.02-.03l.08-.18c.03-.06.05-.12.08-.18,0,0,0,0,0,0,0,0,0-.01,0-.02,0,0,0-.01,0-.02,0,0,0,0,0-.01l.05-.4h0s0-.03,0-.04c0,0,0-.01,0-.02-.01-.11-.04-.3-.05-.4,0,0,0,0,0-.01,0-.01,0-.03,0-.04,0,0,0-.01,0-.02,0,0,0,0,0-.01-.04-.11-.11-.26-.15-.36-.01-.03-.03-.05-.04-.07-.07-.09-.17-.22-.24-.31,0,0,0,0,0,0,0,0,0-.01-.01-.02,0-.01-.02-.02-.03-.03-.05-.05-.12-.09-.17-.13-.05-.04-.11-.09-.17-.13-.01,0-.02-.02-.04-.02-.06-.03-.14-.06-.19-.08s-.13-.06-.19-.08c-.01,0-.03,0-.04-.01-.06-.01-.34-.05-.4-.05,0,0,0,0,0,0,0,0-.01,0-.02,0s-.01,0-.02,0c0,0,0,0,0,0l-.4.05s0,0,0,0c-.01,0-.02,0-.04,0,0,0,0,0-.01,0-.05.02-.32.13-.36.15,0,0-.01,0-.02,0,0,0-.02.01-.03.02-.06.05-.25.19-.31.24,0,0,0,0,0,0,0,0,0,0-.01.01,0,0,0,0-.01.01-.03.03-.21.27-.24.31,0,0,0,0,0,0,0,0-.01.02-.02.03,0,0,0,.01,0,.02-.02.05-.13.31-.15.36,0,0,0,0,0,0,0,.01,0,.02-.01.04,0,0,0,.01,0,.02,0,0,0,0,0,0-.01.07-.05.33-.05.4,0,.01,0,.03,0,.04,0,.01,0,.02,0,.04,0,.07.02.15.03.21,0,.07.02.15.03.22,0,.02.01.05.02.07.02.06.06.15.08.19s.05.13.08.19c0,0,0,.01,0,.02,0,.01.01.02.02.03,0,0,0,0,0,0,.06.08.18.23.24.31,0,0,0,.01.01.02,0,0,.02.02.03.03.1.09.21.18.33.25,0,0,.01,0,.02,0,0,0,0,0,0,0,.06.03.12.05.18.08.06.03.12.05.18.08.01,0,.02,0,.04.01,0,0,0,0,.01,0,.06,0,.35.05.4.05,0,0,.02,0,.02,0,.21,0,.4-.04.58-.13.19-.06.35-.16.48-.31.15-.14.25-.3.31-.48.09-.18.14-.37.13-.58l-.05-.4c-.07-.25-.2-.47-.39-.66l-.3-.23c-.23-.14-.49-.2-.76-.2h0Z"/><path class="cls-2" d="m560.65,355.27c1.65.65,3.36,1.03,5.12,1.23.32.04.67-.14.91-.32.25-.2.46-.46.54-.78.27-1.05.55-2.11.82-3.16.2-.76-.25-1.66-1.05-1.85s-1.63.24-1.85,1.05c-.27,1.05-.55,2.11-.82,3.16l1.45-1.1c-.1-.01-.21-.03-.31-.04.43.04.07,0-.01,0-.19-.03-.38-.06-.56-.1-.39-.07-.78-.16-1.17-.25-.77-.19-1.53-.44-2.27-.73-.34-.13-.85-.03-1.16.15s-.61.54-.69.9c-.2.86.26,1.54,1.05,1.85h0Z"/><path class="cls-2" d="m567.71,345.21l-.11-.11c-.14-.15-.3-.25-.48-.31-.18-.09-.37-.14-.58-.13-.21,0-.4.04-.58.13-.19.06-.35.16-.48.31l-.23.3c-.14.23-.2.49-.2.76l.05.4c.07.25.2.47.39.66l.11.11c.14.15.3.25.48.31.18.09.37.14.58.13.21,0,.4-.04.58-.13.19-.06.35-.16.48-.31l.23-.3c.14-.23.2-.49.2-.76l-.05-.4c-.07-.25-.2-.47-.39-.66h0Z"/><path class="cls-2" d="m525.87,412.26c1.88-.06,3.77-.13,5.65-.19.81-.03,1.5-.66,1.5-1.5,0-1.36,0-2.72.01-4.07,0-.78-.69-1.54-1.5-1.5s-1.5.66-1.5,1.5c0,1.36,0,2.72-.01,4.07l1.5-1.5c-1.88.06-3.77.13-5.65.19-.78.03-1.54.67-1.5,1.5s.66,1.53,1.5,1.5h0Z"/><path class="cls-2" d="m533.04,403.05v-.33c0-.21-.04-.4-.13-.58-.06-.19-.16-.35-.31-.48-.14-.15-.3-.25-.48-.31-.18-.09-.37-.14-.58-.13l-.4.05c-.25.07-.47.2-.66.39l-.23.3c-.14.23-.2.49-.2.76v.33c0,.21.04.4.13.58.06.19.16.35.31.48.14.15.3.25.48.31.18.09.37.14.58.13l.4-.05c.25-.07.47-.2.66-.39l.23-.3c.14-.23.2-.49.2-.76h0Z"/><path class="cls-2" d="m548.65,456.37c3.96-.34,7.77-1.37,11.37-3.05.78-.37.85-1.37.54-2.05-1.05-2.31-1.73-4.78-2.09-7.29-.11-.8-1.14-1.24-1.85-1.05-.86.24-1.16,1.04-1.05,1.85.4,2.78,1.22,5.45,2.39,8l.54-2.05c-3.09,1.45-6.5,2.35-9.86,2.64-.81.07-1.5.64-1.5,1.5,0,.76.69,1.57,1.5,1.5h0Z"/><path class="cls-2" d="m553.48,439.93v.11c0,.21.04.4.13.58.06.19.16.35.31.48.14.15.3.25.48.31.18.09.37.14.58.13l.4-.05c.25-.07.47-.2.66-.39l.23-.3c.14-.23.2-.49.2-.76v-.11c0-.21-.04-.4-.13-.58-.06-.19-.16-.35-.31-.48-.14-.15-.3-.25-.48-.31-.18-.09-.37-.14-.58-.13l-.4.05c-.25.07-.47.2-.66.39l-.23.3c-.14.23-.2.49-.2.76h0Z"/><path class="cls-2" d="m434.84,426.78c2.27.25,4.54.49,6.81.74l-1.3-2.26c-.44.77-.88,1.54-1.32,2.31-.39.68-.18,1.67.54,2.05s1.64.19,2.05-.54c.44-.77.88-1.54,1.32-2.31.27-.47.27-1.05,0-1.51-.29-.49-.75-.68-1.3-.74-2.27-.25-4.54-.49-6.81-.74-.78-.09-1.53.75-1.5,1.5.04.89.66,1.41,1.5,1.5h0Z"/><path class="cls-2" d="m438.38,431.8c-.29-.13-.46-.22-.78-.21-.14,0-.28.01-.41.06-.01,0-.35.15-.36.15,0,0,0,0,0,0-.22.14-.43.32-.55.56-.06.12-.11.24-.16.37,0,0,0,.01,0,.02-.02.14-.05.27-.06.41,0,0,0,.01,0,.02,0,.14.02.29.06.43,0,0,0,0,0,.01.05.12.09.25.16.37.14.26.31.39.55.56.21.14.54.21.78.21.14,0,.28-.01.41-.06,0,0,0,0,0,0l.36-.15s0,0,0,0c0,0,0,0,0,0,.17-.09.32-.22.42-.39.13-.14.22-.31.27-.51.06-.2.07-.4.03-.6,0-.2-.07-.39-.18-.56l-.23-.3c-.19-.19-.41-.31-.66-.39l-.4-.05c-.27,0-.52.07-.76.2,0,0,0,0-.01,0l.36-.15s0,0-.01,0l.4-.05s0,0-.01,0l.4.05s0,0,0,0l.36.15s0,0,0,0l.3.23s0,0,0,0l.23.3s0-.01-.01-.02l.15.36s0-.02,0-.03l.05.4s0-.03,0-.04l-.05.4s0-.02,0-.03l-.15.36s0,0,0-.01l-.23.3s0,0,0,0l-.3.23s0,0,0,0l-.36.15s0,0,0,0l-.4.05s0,0,.01,0l-.4-.05s.01,0,.01,0l-.36-.15s0,0,0,0c.17.11.36.17.56.18.2.04.4.04.6-.03.2-.05.37-.14.51-.27.16-.11.29-.25.39-.42l.15-.36c.07-.27.07-.53,0-.8l-.15-.36c-.13-.23-.31-.4-.54-.54h0Z"/><path class="cls-2" d="m423.25,449.83l8.12,2.11c.69.18,1.3-.13,1.69-.69.54-.76,1.08-1.53,1.62-2.29.47-.66.12-1.67-.54-2.05-.75-.44-1.58-.13-2.05.54-.54.76-1.08,1.53-1.62,2.29l1.69-.69-8.12-2.11c-.76-.2-1.66.25-1.85,1.05s.24,1.63,1.05,1.85h0Z"/><path class="cls-2" d="m434.09,446.1c1.93,0,1.93-3,0-3s-1.93,3,0,3h0Z"/><path class="cls-2" d="m395.61,458.31l4.39-.74c.45-.08.81-.48.97-.87.19-.46.15-.9-.08-1.33-.7-1.37-1.4-2.74-2.1-4.11-.36-.7-1.4-.96-2.05-.54-.71.46-.92,1.3-.54,2.05.7,1.37,1.4,2.74,2.1,4.11l.9-2.2-4.39.74c-.35.06-.72.4-.9.69-.19.32-.27.8-.15,1.16s.34.71.69.9c.38.2.74.22,1.16.15h0Z"/><path class="cls-2" d="m395.09,445.66h-.11c-.21,0-.4.04-.58.13-.19.06-.35.16-.48.31-.15.14-.25.3-.31.48-.09.18-.14.37-.13.58l.05.4c.07.25.2.47.39.66l.3.23c.23.14.49.2.76.2h.11c.21,0,.4-.04.58-.13.19-.06.35-.16.48-.31.15-.14.25-.3.31-.48.09-.18.14-.37.13-.58l-.05-.4c-.07-.25-.2-.47-.39-.66l-.3-.23c-.23-.14-.49-.2-.76-.2h0Z"/><path class="cls-2" d="m324.07,460.54c1.58.65,3.25,1,4.95,1.1.47.03,1.1-.3,1.3-.74.58-1.35,1.15-2.7,1.73-4.05.17-.39.27-.73.15-1.16-.1-.35-.36-.73-.69-.9-.64-.34-1.72-.23-2.05.54-.58,1.35-1.15,2.7-1.73,4.05l1.3-.74c-.2-.01-.39-.03-.58-.05-.1,0-.19-.02-.29-.03-.22-.02.37.06,0,0s-.73-.13-1.09-.21c-.74-.17-1.47-.41-2.17-.7-.33-.14-.86-.02-1.16.15s-.61.54-.69.9c-.09.38-.07.81.15,1.16s.51.53.9.69h0Z"/><path class="cls-2" d="m332.26,451.91l.11-.22c.11-.17.17-.36.18-.56.04-.2.04-.4-.03-.6-.05-.2-.14-.37-.27-.51-.11-.16-.25-.29-.42-.39l-.36-.15c-.27-.07-.53-.07-.8,0l-.36.15c-.23.13-.4.31-.54.54l-.11.22c-.11.17-.17.36-.18.56-.04.2-.04.4.03.6.05.2.14.37.27.51.11.16.25.29.42.39l.36.15c.27.07.53.07.8,0l.36-.15c.23-.13.4-.31.54-.54h0Z"/><path class="cls-2" d="m333.21,407.7l1.81-1.14c.74-.47,1.54-.89,1.9-1.74.39-.92.05-1.8-.27-2.67-.25-.7-.5-1.39-.75-2.09-.27-.74-1.03-1.31-1.85-1.05-.72.23-1.33,1.06-1.05,1.85.21.59.42,1.17.63,1.76.11.29.21.59.32.88.05.14.09.28.14.42.06.18.01.02,0-.08,0,.25.03-.08.07-.18.02-.07.06-.12.11-.17.08-.09.09-.1.04-.05-.04.03-.2.17-.02.03s0,0-.04.02c-.05.04-.11.07-.17.11-.26.16-.52.33-.78.49l-1.62,1.01c-.66.42-.99,1.36-.54,2.05s1.34.98,2.05.54h0Z"/><path class="cls-2" d="m334.15,395.99c-.14-.35-.14-.39-.39-.67-.09-.1-.2-.17-.31-.24-.25-.16-.5-.19-.78-.21-.3-.02-.52.09-.78.21-.21.1-.44.36-.56.55-.12.2-.23.54-.21.78.03.36.05.45.21.77.06.12.16.22.24.32,0,0,0,0,0,0,.05.04.1.08.15.12.05.04.1.08.15.12,0,0,0,0,0,0,.12.06.24.12.36.15.21.06.61.08.83,0,.2-.05.37-.14.51-.27.16-.11.29-.25.39-.42.11-.17.17-.36.18-.56.04-.2.04-.4-.03-.6l-.15-.36c-.13-.23-.31-.4-.54-.54l-.36-.15c-.27-.07-.53-.07-.8,0,0,0,0,0,0,0l.4-.05s0,0-.01,0l.4.05s0,0-.01,0l.36.15s0,0-.01,0l.3.23s0,0-.01-.01l.23.3s0,0,0-.01l.15.36s0,0,0-.01l.05.4s0,0,0-.01l-.05.4s0,0,0,0l-.15.36s0,0,0,0l-.23.3s0,0,0,0l-.3.23s0,0,.01,0l-.36.15s0,0,.01,0l-.4.05s0,0,.01,0l-.4-.05s0,0,.01,0l-.36-.15s0,0,.01,0l-.3-.23s0,0,0,0l-.23-.3s0,0,0,0l-.15-.36h0c.05.2.14.37.27.51.11.16.25.29.42.39.17.11.36.17.56.18.2.04.4.04.6-.03l.36-.15c.23-.13.4-.31.54-.54l.15-.36c.07-.27.07-.53,0-.8h0Z"/><path class="cls-2" d="m263.42,449.89l4.4-.77c.34-.06.74-.39.9-.69.2-.37.23-.74.15-1.16-.35-1.85-.7-3.7-1.04-5.55-.15-.77-1.12-1.28-1.85-1.05-.83.27-1.2,1.02-1.05,1.85.35,1.85.7,3.7,1.04,5.55l1.05-1.85-4.4.77c-.77.14-1.28,1.12-1.05,1.85.27.83,1.02,1.19,1.85,1.05h0Z"/><path class="cls-2" d="m264.75,437.21s-.1.13-.12.16c-.04.05-.08.1-.12.15,0,0,0,0,0,0,0,0,0,0,0,0-.03.06-.12.29-.08.18-.11.26-.11.22-.13.59,0,0,0,0,0,.01.01.14.02.27.06.41,0,0,0,0,0,0,0,0,0,0,0,0l.15.36s0,0,0,0c0,0,0,0,0,0,.04.05.11.14.12.16-.03-.03.08.11.12.16,0,0,0,0,0,0,0,0,0,0,0,0l.3.23s0,0,0,0c.11.07.24.13.37.16,0,0,0,0,0,0,.01,0,.39.05.4.05,0,0,0,0,.01,0,.21,0,.4-.04.58-.13.19-.06.35-.16.48-.31.15-.14.25-.3.31-.48.09-.18.14-.37.13-.58l-.05-.4c-.07-.25-.2-.47-.39-.66l-.3-.23c-.23-.14-.49-.2-.76-.2,0,0,0,0-.01,0l.4.05s0,0-.01,0l.36.15s0,0-.01,0l.3.23s0,0-.01-.01l.23.3s0-.01-.01-.02l.15.36s0-.01,0-.02l.05.4s0-.01,0-.02l-.05.4s0,0,0-.01l-.15.36s0,0,0-.01l-.23.3s0,0,0,0c.15-.14.25-.3.31-.48.09-.18.14-.37.13-.58,0-.21-.04-.4-.13-.58-.06-.19-.16-.35-.31-.48l-.3-.23c-.23-.14-.49-.2-.76-.2l-.4.05c-.25.07-.47.2-.66.39h0Z"/><path class="cls-2" d="m193.64,461.49c1.9.19,3.8.38,5.7.57.58.06,1.36-.5,1.45-1.1.28-2.02.55-4.04.83-6.06.06-.42.07-.78-.15-1.16-.18-.31-.54-.61-.9-.69-.71-.16-1.73.22-1.85,1.05-.28,2.02-.55,4.04-.83,6.06l1.45-1.1c-1.9-.19-3.8-.38-5.7-.57-.78-.08-1.53.75-1.5,1.5.04.88.66,1.42,1.5,1.5h0Z"/><path class="cls-2" d="m199.88,449.57l-.33.17c-.17.09-.32.22-.42.39-.13.14-.22.31-.27.51-.06.2-.07.4-.03.6,0,.2.07.39.18.56l.23.3c.19.19.41.31.66.39l.4.05c.27,0,.52-.07.76-.2l.33-.17c.17-.09.32-.22.42-.39.13-.14.22-.31.27-.51.06-.2.07-.4.03-.6,0-.2-.07-.39-.18-.56l-.23-.3c-.19-.19-.41-.31-.66-.39l-.4-.05c-.27,0-.52.07-.76.2h0Z"/><path class="cls-2" d="m125.13,456.38c1.59-.32,3.19-.64,4.78-.96.67-.13,1.07-.82,1.1-1.45.07-1.46.15-2.91.22-4.37.04-.78-.72-1.53-1.5-1.5-.85.04-1.46.66-1.5,1.5-.07,1.46-.15,2.91-.22,4.37l1.1-1.45-4.78.96c-.77.15-1.28,1.11-1.05,1.85.26.82,1.02,1.21,1.85,1.05h0Z"/><path class="cls-2" d="m128.73,444.44l-.12.16c-.11.17-.17.36-.18.56-.04.2-.04.4.03.6.05.2.14.37.27.51.11.16.25.29.42.39l.36.15c.27.07.53.07.8,0l.36-.15c.23-.13.4-.31.54-.54l.12-.16c.11-.17.17-.36.18-.56.04-.2.04-.4-.03-.6-.05-.2-.14-.37-.27-.51-.11-.16-.25-.29-.42-.39l-.36-.15c-.27-.07-.53-.07-.8,0l-.36.15c-.23.13-.4.31-.54.54h0Z"/><path class="cls-2" d="m401.78,411.8c13.84-4.15,26.32-12.42,35.46-23.62,1.21-1.48-.9-3.62-2.12-2.12-8.83,10.81-20.76,18.83-34.14,22.84-1.84.55-1.06,3.45.8,2.89h0Z"/><path class="cls-2" d="m439.77,382.95l-.08-.15c-.09-.17-.22-.32-.39-.42-.14-.13-.31-.22-.51-.27-.2-.06-.4-.07-.6-.03-.2,0-.39.07-.56.18l-.3.23c-.19.19-.31.41-.39.66l-.05.4c0,.27.07.52.2.76l.08.15c.09.17.22.32.39.42.14.13.31.22.51.27.2.06.4.07.6.03.2,0,.39-.07.56-.18l.3-.23c.19-.19.31-.41.39-.66l.05-.4c0-.27-.07-.52-.2-.76h0Z"/><path class="cls-2" d="m171.38,146.73l9.42-1.59c.82-.14,1.22-1.12,1.05-1.85-.45-1.89-.89-3.78-1.34-5.67-.18-.76-1.09-1.29-1.85-1.05-.8.26-1.24,1.03-1.05,1.85.45,1.89.89,3.78,1.34,5.67l1.05-1.85-9.42,1.59c-.78.13-1.28,1.13-1.05,1.85.27.84,1.01,1.19,1.85,1.05h0Z"/><path class="cls-2" d="m177.32,130.9l-.29.15c-.17.09-.32.22-.42.39-.13.14-.22.31-.27.51-.06.2-.07.4-.03.6,0,.2.07.39.18.56l.23.3c.19.19.41.31.66.39l.4.05c.27,0,.52-.07.76-.2l.29-.15c.17-.09.32-.22.42-.39.13-.14.22-.31.27-.51.06-.2.07-.4.03-.6,0-.2-.07-.39-.18-.56l-.23-.3c-.19-.19-.41-.31-.66-.39l-.4-.05c-.27,0-.52.07-.76.2h0Z"/><path class="cls-2" d="m305.83,123.2l4.51-2.39c.56-.3.89-1.09.69-1.69-.5-1.53-1-3.06-1.49-4.59-.24-.74-1.05-1.31-1.85-1.05-.74.24-1.31,1.05-1.05,1.85.5,1.53,1,3.06,1.49,4.59l.69-1.69-4.51,2.39c-.69.37-.96,1.39-.54,2.05.46.71,1.31.93,2.05.54h0Z"/><path class="cls-2" d="m305.35,108.51h-.3c-.21,0-.4.04-.58.13-.19.06-.35.16-.48.31-.15.14-.25.3-.31.48-.09.18-.14.37-.13.58l.05.4c.07.25.2.47.39.66l.3.23c.23.14.49.2.76.2h.3c.21,0,.4-.04.58-.13.19-.06.35-.16.48-.31.15-.14.25-.3.31-.48.09-.18.14-.37.13-.58l-.05-.4c-.07-.25-.2-.47-.39-.66l-.3-.23c-.23-.14-.49-.2-.76-.2h0Z"/><path class="cls-2" d="m379.1,128.53c13.65-4.58,26.16-12.18,36.51-22.19,1.39-1.34-.73-3.46-2.12-2.12-9.97,9.64-22.03,17-35.18,21.42-1.82.61-1.04,3.51.8,2.89h0Z"/><path class="cls-2" d="m418.1,100.98l.3-.29c.15-.14.25-.3.31-.48.09-.18.14-.37.13-.58,0-.21-.04-.4-.13-.58-.06-.19-.16-.35-.31-.48l-.3-.23c-.23-.14-.49-.2-.76-.2l-.4.05c-.25.07-.47.2-.66.39l-.3.29c-.15.14-.25.3-.31.48-.09.18-.14.37-.13.58,0,.21.04.4.13.58.06.19.16.35.31.48l.3.23c.23.14.49.2.76.2l.4-.05c.25-.07.47-.2.66-.39h0Z"/><path class="cls-2" d="m539.53,86.22c8,8.9,12.35,20.72,12.13,32.67-.04,1.93,2.96,1.93,3,0,.24-12.75-4.48-25.31-13-34.79-1.29-1.44-3.41.69-2.12,2.12h0Z"/><path class="cls-2" d="m535.55,81.42v.3c0,.21.04.4.13.58.06.19.16.35.31.48.14.15.3.25.48.31.18.09.37.14.58.13l.4-.05c.25-.07.47-.2.66-.39l.23-.3c.14-.23.2-.49.2-.76v-.3c0-.21-.04-.4-.13-.58-.06-.19-.16-.35-.31-.48-.14-.15-.3-.25-.48-.31-.18-.09-.37-.14-.58-.13l-.4.05c-.25.07-.47.2-.66.39l-.23.3c-.14.23-.2.49-.2.76h0Z"/></g></g><g id="Custom"><g id="Contourage"><path class="cls-2" d="m119.72,310.93l-5.59-25.39h1.41v-105.92h-46.61l-.9,7.77c-.29,2.4-1.23,4.82-2.88,7.41-2.09,3.26-4.71,6.75-7.81,10.34-3.34,3.89-6.89,7.96-10.63,12.28-4.07,4.69-7.83,9.72-11.13,14.94-3.52,5.5-6.47,11.59-8.8,18.1-2.4,6.78-3.63,14.34-3.63,22.48,0,6.6,1.01,13.46,2.97,20.35,2.05,7.24,5.46,13.9,10.14,19.8,4.71,5.94,10.82,10.89,18.17,14.72,7.5,3.87,16.56,5.85,26.95,5.85,4.4,0,8.76-.35,12.91-1.03,3.81-.62,7.35-1.3,10.49-2.02l.24-.04c3.61-.95,7.11-2,10.41-3.17l7.3-2.57.04-.02-3.06-13.86Zm-35.37-22.09c-4.95,0-7.7-.77-9.09-1.39-2.05-.95-3.54-2-4.49-3.17-.97-1.14-1.56-2.29-1.85-3.54-.55-2.22-.66-3.76-.66-4.69,0-4.03.79-7.88,2.42-11.73.59-1.41,1.21-2.77,1.85-4.07l1.78,25.28h24.24c-.59.24-1.19.48-1.76.7-1.83.68-3.89,1.3-6.18,1.87-1.94.48-4.05.73-6.27.73Z"/><path class="cls-2" d="m199.88,271.72c-.02-.33-.04-.64-.07-.97v-.02c-.35-4.88-.75-9.94-1.19-15.2-.18-2.02-.35-4.09-.53-6.18l-.11-1.3c-.2-2.38-.4-4.71-.57-7.02v-.02c-.44-5.43-.84-10.67-1.19-15.82-.04-.66-.09-1.3-.13-1.96-.53-7.99-.79-15.4-.79-22,0-2.55.04-4.66.13-6.45.13-2.11.26-3.78.46-5.26l1.65-12.74-44.22,10.82-.2-1.61-46.4-8.4.24,2,1.25,9.88c.18,1.47.33,3.08.44,4.95.11,1.83.15,3.74.15,5.65,0,6.2-.35,13.13-1.03,21.12-.33,3.7-.68,7.33-1.06,10.89-.44,4.4-.9,8.71-1.39,12.85-.88,7.33-1.69,14.81-2.51,22.92-.35,3.59-.57,6.23-.7,8.58,0,.09-.02.18-.02.26-.24,3.94-.37,7.28-.37,10.23,0,2.24.13,4.44.44,6.58.15,1.21.35,2.4.62,3.56.7,3.23,1.83,6.4,3.32,9.42,1.54,3.08,3.37,5.92,5.48,8.49,1.83,2.24,3.85,4.29,6.07,6.14,1.61,1.34,3.3,2.55,5.06,3.67,3.37,2.18,7.02,3.96,10.89,5.35,5.87,2.09,12.03,3.17,18.28,3.17,5.83,0,11.57-.79,17.09-2.31,5.76-1.61,11.02-4.11,15.62-7.48.95-.68,1.85-1.41,2.71-2.18,2.22-1.96,4.2-4.14,5.94-6.53,1.06-1.45,2.02-2.99,2.9-4.6,1.54-2.79,2.71-5.9,3.45-9.17.75-3.15,1.12-6.56,1.12-10.16v-.29c0-5.04-.29-11.24-.86-18.87Zm-48.77-12.06c.44-5.72.95-11.55,1.47-17.51.04-.29.07-.57.09-.84l.4,5.94c.22,3.28.44,6.56.68,9.77.37,5.5.55,10.63.55,15.25,0,3.59-.15,7.02-.46,10.19-.26,2.71-.7,4.99-1.28,6.71-.11.29-.2.55-.31.79-1.19-3.61-1.78-8.62-1.78-14.87,0-4.73.22-9.92.64-15.42Z"/><path class="cls-2" d="m273.36,265.96c-1.69-2.22-3.59-4.16-5.68-5.81l.66-10.58.97-15.93v-.02l1.72-28v-.04l1.36-22.02.24-3.94h-47.47v7.41c-.24.37-.64.99-1.28,1.85-1.85,2.55-4.18,5.52-7.13,9.11-2.99,3.67-6.23,7.7-9.68,12.1-3.52,4.51-6.86,9.13-9.92,13.71-.31.46-.62.95-.92,1.41-2.79,4.29-5.21,8.62-7.17,12.89-.22.46-.42.92-.59,1.39v.02c-2.13,4.93-3.19,9.66-3.19,14.15,0,.97.02,1.87.09,2.75.37,6.73,2.18,12.47,5.37,17.03.15.22.33.46.51.68.15.24.33.46.51.7l-.37,1.43v.02l-5.46,21.49-4.25,16.83v.02l-.44,1.76,4.25,3.54c.59.51,1.21.99,1.85,1.45,2.66,2.02,5.61,3.89,8.82,5.54l.26.13c3.39,1.61,7.41,3.1,11.92,4.42,4.95,1.45,10.52,2.2,16.56,2.2s11.99-.86,18.17-2.55c6.4-1.78,12.25-4.6,17.44-8.4,5.35-3.94,9.77-9,13.11-15,3.45-6.25,5.21-13.66,5.21-22.06s-1.83-14.78-5.48-19.67Zm-43.87-16.01c.4-.59.84-1.25,1.32-1.94l.24,2.4c-.55-.13-1.08-.29-1.56-.46Z"/><path class="cls-2" d="m286.15,293.38l6.8-2.27c.63-.21,1.33-.41,2.12-.61-.5-4.54-.87-9.02-1.1-13.38-.39-6.83-.58-13.95-.58-21.15,0-.6,0-1.2,0-1.8l-32.8-6.03v-10.81c0-3.23-.12-5.97-.36-8.17-.24-2.3-.5-4.25-.81-5.86-.34-1.62-.72-3.14-1.08-4.3l-.91-2.96,12.92-32.49h12.14l.26.02c1.82.11,3.84.16,6,.16h8.16c4.31,0,9.29-.06,15.22-.17,5.24-.08,10.65-.27,16.12-.56,4.97-.24,9.94-.62,14.8-1.11,4.46-.47,8.09-1.04,10.76-1.69l7.36-1.79,14.15,34.63-.63,2.72c-.23.98-.38,2.06-.46,3.23l-.03.49-.09.48c-.46,2.6-.7,5.73-.7,9.32s.41,6.88,1.22,10.02l2.2,8.54-37.43,9.54c.22,5.19.59,10.16,1.09,14.87.58,5.44,1.19,10.42,1.82,14.9.78.1,1.56.21,2.34.33l7.51,1.11v40.61h-11.2l-.61-.15h-1.94c-1.87,0-4.28.04-7.16.15-2.91.11-5.99.29-9.42.57-3.28.25-6.7.63-10.51,1.17-3.48.5-6.96,1.21-10.37,2.11l-9.8,2.59-5.01-42.23Z"/><path class="cls-2" d="m444.4,255.29c-.31-1.03-.64-2.09-.97-3.12-2.24-7.02-4.75-13.79-7.48-20.22-.02-.04-.02-.07-.04-.11-3.01-7.11-5.85-13.64-8.45-19.53-2.02-4.66-2.97-7.9-3.39-10.1,2.05-5.24,2.9-8.6,2.9-11.33v-8.12l-46.44-3.83-.95,8.51c-.07.68-.4,2.4-1.72,6.07-1.47,3.96-2.95,7.83-4.55,11.84-.2.48-.37.97-.57,1.45-1.69,4.31-3.43,8.95-5.19,13.77-1.01,2.82-2,5.7-2.95,8.62v.04c-.99,3.01-1.91,6.07-2.77,9.15-.42,1.47-.81,2.95-1.21,4.44v.02c-.79,3.12-1.52,6.36-2.18,9.64-.35,1.8-.7,3.61-1.01,5.43-1.19,6.84-1.78,13.77-1.78,20.59,0,3.45.15,6.69.44,9.72.53,5.61,1.56,10.56,3.1,14.96,2.4,7.04,5.79,12.91,10.05,17.42,4.36,4.66,9.46,8.05,15.11,10.1,5.39,1.94,11,2.93,16.67,2.93,6.53,0,12.78-1.28,18.57-3.81,5.39-2.33,10.19-5.61,14.28-9.75.29-.26.55-.55.81-.84,2.82-2.99,5.28-6.45,7.3-10.3,1.03-1.89,1.96-3.92,2.77-6.03,2.4-6.31,3.63-13.29,3.63-20.77,0-9.09-1.34-18.13-4-26.88Zm-44.64,15.31c.04.2.07.4.11.59.51,2.99.77,5.85.77,8.47,0,3.65-.29,5.87-.57,7.17-.02-.09-.02-.15-.04-.24-.35-1.39-.75-4.03-.75-8.71,0-2.33.15-4.75.48-7.28Z"/><path class="cls-2" d="m498.75,327.03l1.35-8.51c.15-.94.4-3.34.4-8.83,0-3.57-.07-7.71-.17-12.4-.02-.62-.03-1.24-.05-1.87h-22.76c.03.95.07,1.9.11,2.84.17,3.24.43,6.09.82,8.65l1.24,8.4-45.56,8.45-.69-9.84c-.23-3.35-.35-6.73-.35-10.07v-9.48c0-9.6.26-19.32.76-28.88.6-10.85,1.08-18.86,1.57-26.01.55-8.08,1.08-15.51,1.56-22.27.48-6.42.73-12.16.73-17.1,0-2.41-.05-4.36-.14-5.99-.08-1.45-.24-2.75-.48-3.86l-2.52-11.82,38.5,3.95,1.95,1.47c2.19,1.64,4.22,3.92,6.02,6.77,1.44,2.23,2.86,4.88,4.2,7.81,1.31,2.89,2.5,5.95,3.56,9.12.28.84.55,1.68.82,2.51.19-.47.38-.94.56-1.4,1.18-2.96,2.49-5.93,3.86-8.76,1.37-2.89,2.91-5.68,4.53-8.23,1.8-2.82,3.59-5.12,5.48-7.01l2.21-2.22,39.79-4.05-3.02,12.15c-.21.84-.48,2.34-.58,4.68-.1,2.24-.14,4.97-.14,8.35,0,5.63.16,12.06.47,19.12.33,7.4.72,15.38,1.16,23.92.42,8.27.8,17.13,1.15,27.09.34,9.65.51,19.32.51,28.73,0,7.4-.17,15.07-.52,22.81l-.44,10.05-45.9-8.26Z"/></g><g id="Lettre_intérieur"><path class="cls-3" d="m111.6,315l-4.16-18.9-1.03-4.73c-.55.31-1.1.62-1.65.92-.37.2-.77.37-1.14.55-.46.24-.95.46-1.43.68-.77.35-1.56.66-2.35.97-2.09.79-4.47,1.5-7.08,2.16-2.64.68-5.46.99-8.4.99-5.28,0-9.55-.75-12.78-2.22-3.23-1.5-5.76-3.3-7.57-5.5-1.83-2.2-3.04-4.58-3.63-7.11-.62-2.51-.9-4.8-.9-6.75,0-5.17,1.03-10.21,3.12-15.16,2.09-4.95,4.4-9.35,6.91-13.2,2.97-4.51,6.34-8.78,10.05-12.85l2.97,41.86h24.22v-88.32h-29.98c-.44,3.76-1.85,7.44-4.2,11.11-2.35,3.7-5.21,7.5-8.56,11.37-3.37,3.89-6.91,7.99-10.65,12.28-3.72,4.29-7.19,8.93-10.36,13.93-3.19,4.99-5.83,10.45-7.92,16.32-2.09,5.87-3.12,12.39-3.12,19.51,0,5.83.88,11.81,2.64,17.97,1.74,6.14,4.6,11.73,8.56,16.72,3.96,4.99,9.06,9.13,15.33,12.36,6.25,3.23,13.88,4.88,22.9,4.88,3.96,0,7.79-.33,11.53-.95,3.74-.57,7.04-1.23,9.9-1.89,3.39-.88,6.64-1.85,9.7-2.95l-.9-4.07Z"/><path class="cls-8" d="m191.9,287.7c-.02-1.45-.09-3.01-.15-4.64-.04-.86-.09-1.76-.13-2.68-.02-.59-.07-1.19-.09-1.8-.04-.75-.11-1.52-.15-2.31v-.02c-.04-.7-.09-1.39-.13-2.13-.04-.57-.09-1.17-.13-1.76-.37-5.15-.79-10.52-1.25-16.1-.2-2.44-.42-4.93-.64-7.44,0-.13-.02-.24-.02-.37-.22-2.46-.42-4.95-.62-7.41-.04-.51-.07-1.01-.11-1.52v-.02c-.04-.44-.07-.88-.11-1.32-.18-2.13-.33-4.27-.48-6.4-.2-2.64-.37-5.28-.55-7.94-.55-8.34-.81-15.84-.81-22.57,0-2.53.04-4.82.15-6.93.11-2.07.26-4.05.51-5.92l-26.86,6.58c-.22,1.76-.4,3.7-.51,5.76-.11,2.09-.15,4.25-.15,6.45,0,4.71.18,9.88.57,15.4.37,5.54.77,11.18,1.14,16.89.4,5.7.77,11.4,1.17,16.96.37,5.61.57,10.89.57,15.82,0,3.96-.18,7.63-.51,11.07-.33,3.39-.9,6.31-1.72,8.71-.84,2.42-1.89,4.31-3.21,5.72-1.32,1.34-3.04,2.02-5.1,2.02-4.18,0-7.04-2.27-8.58-6.82-1.54-4.55-2.31-10.54-2.31-17.88,0-4.95.22-10.32.66-16.08.44-5.76.95-11.64,1.5-17.6.53-6.01,1.03-11.97,1.47-17.99.44-5.98.66-11.62.66-16.87,0-2.31-.09-4.58-.24-6.75-.18-2.2-.37-4.29-.59-6.27l-28.16-5.1c.22,1.76.37,3.59.48,5.54.11,1.89.18,3.96.18,6.14,0,6.6-.37,13.9-1.08,21.93-.31,3.48-.64,6.95-1.01,10.43v.07c-.09.75-.15,1.5-.22,2.22-.37,3.76-.79,7.52-1.23,11.26-.95,7.96-1.76,15.53-2.49,22.75-.29,2.93-.53,5.7-.68,8.27-.24,3.7-.37,7-.37,9.92s.29,5.68.86,8.27c.57,2.62,1.45,5.06,2.6,7.37.35.73.75,1.45,1.17,2.13.04.09.09.18.13.26.4.66.81,1.32,1.25,1.96.02.02.04.07.07.11.46.66.95,1.32,1.45,1.96,0,0,.02,0,.02.02.51.64,1.03,1.25,1.58,1.87t.04.04s.04.07.09.09c.44.48.88.97,1.36,1.41.13.15.29.31.44.44.55.53,1.1,1.03,1.69,1.52,3.89,3.21,8.32,5.72,13.27,7.48s10.05,2.64,15.33,2.64,9.97-.66,14.74-1.98c4.77-1.32,9.04-3.37,12.76-6.07.51-.37.99-.75,1.47-1.17.26-.22.53-.46.79-.7.33-.31.68-.62,1.01-.92.31-.31.64-.64.95-.97,1.12-1.17,2.13-2.44,3.08-3.83.29-.44.59-.9.86-1.36.31-.51.62-1.01.9-1.54,1.17-2.11,2.02-4.42,2.6-6.93.59-2.51.88-5.24.88-8.14,0-1.01-.02-2.07-.04-3.19Z"/><path class="cls-7" d="m266.34,271.26c-2.49-3.28-5.59-5.68-9.33-7.24-3.74-1.54-7.74-2.51-12.01-2.88-4.29-.37-8.32-.86-12.03-1.41-3.74-.55-6.84-1.43-9.31-2.73-2.49-1.25-3.72-3.48-3.72-6.67,0-1.21.57-2.73,1.74-4.53,1.14-1.8,2.57-3.81,4.27-6.01,1.72-2.2,3.61-4.51,5.7-6.93s4.05-4.77,5.92-7.08l2.64,28,19.12-1.14,1.19-19.27,1.83-29.72.95-15.27h-29.32c0,1.1-.99,2.99-2.97,5.7-1.98,2.68-4.44,5.83-7.41,9.48-2.97,3.61-6.16,7.59-9.57,11.92-3.39,4.33-6.58,8.73-9.55,13.18-1.39,2.11-2.68,4.18-3.85,6.25-.46.79-.9,1.58-1.32,2.38-.24.42-.46.86-.66,1.28-.07.09-.11.18-.13.26-.37.73-.73,1.45-1.08,2.18v.02c-.13.26-.26.51-.37.77-1.98,4.25-2.97,8.23-2.97,11.84,0,.79.02,1.52.07,2.24.29,5.15,1.56,9.28,3.81,12.5.29.42.59.81.9,1.21.31.4.62.77.97,1.14v.02c.31.35.62.68.92.97.26.31.53.57.81.81.7.68,1.43,1.3,2.22,1.87.35.26.73.53,1.1.77.44.31.9.57,1.36.84.46.29.95.53,1.43.77,3.89,1.94,8.12,3.23,12.69,3.87,4.55.66,8.78,1.17,12.67,1.5,3.92.35,7.15.66,9.72.99,2.6.33,3.87,1.14,3.87,2.46,0,1.76-.59,3.43-1.8,5.02-1.21,1.63-2.84,2.95-4.86,4.05-2.02,1.1-4.4,1.98-7.08,2.66-2.68.64-5.52.97-8.49.97-4.6,0-9.28-.79-13.99-2.4-.44-.15-.86-.31-1.28-.46-.37-.13-.73-.29-1.08-.44-1.03-.44-2.05-.95-3.04-1.52-.46-.24-.9-.53-1.34-.81-.99-.62-1.98-1.32-2.93-2.07-.4-.31-.77-.62-1.14-.95-.7-.59-1.41-1.25-2.07-1.91l-3.08,12.14-3.34,13.27c.55.46,1.1.9,1.69,1.34.15.11.31.22.46.33.81.59,1.65,1.17,2.53,1.72.62.42,1.23.79,1.87,1.14,0,.02.02.02.04.04.79.46,1.63.9,2.46,1.34,2.97,1.41,6.51,2.75,10.63,3.94,4.14,1.21,8.82,1.85,14.1,1.85s10.43-.77,15.82-2.22c5.37-1.5,10.23-3.83,14.59-7.04,4.33-3.19,7.88-7.24,10.63-12.19s4.11-10.87,4.11-17.8c0-6.27-1.23-11.04-3.7-14.34Z"/><path class="cls-5" d="m364.61,229.2c0-4.14.29-7.74.84-10.82.11-1.65.33-3.19.66-4.62l-10.23-25.03c-3.17.77-7.15,1.39-11.95,1.91-4.77.46-9.86.86-15.22,1.12-5.39.29-10.87.48-16.41.57-5.54.11-10.67.18-15.4.18h-8.16c-2.46,0-4.64-.07-6.51-.18h-5.92l-5.28,13.24-4.29,10.82c.44,1.43.88,3.19,1.32,5.28.33,1.76.64,3.92.9,6.51.07.66.13,1.32.18,2.02.02.2.04.37.04.57.04.53.07,1.08.09,1.63.02.4.04.79.04,1.21v.02c.02.59.04,1.19.04,1.8.02.62.02,1.23.02,1.87v3.48l21.43,3.94c.11-1.21.22-2.51.33-3.94.11-1.19.18-2.57.24-4.14.04-1.54.09-3.23.09-5.1,0-2.2-.07-4.47-.18-6.82-.11-2.38-.37-4.66-.81-6.86h7.08c1.98,0,4-.04,6.09-.13-.44,5.26-.79,11.13-1.08,17.6-.26,6.49-.4,13.35-.4,20.61,0,6.8.18,13.71.57,20.68.37,6.97,1.08,13.86,2.05,20.7-1.43.2-2.68.44-3.78.7-1.1.29-2.02.55-2.79.75-.99.22-1.83.44-2.49.66l2.97,25.06c3.74-.99,7.52-1.76,11.37-2.31s7.52-.97,11.04-1.21c3.52-.31,6.78-.51,9.81-.62,3.01-.11,5.52-.15,7.48-.15h2.07c.59,0,1.12.04,1.56.15h1.32v-24.22c-2.97-.44-5.87-.77-8.73-.99-.99-6.03-1.96-13.35-2.88-22-.92-8.62-1.41-18.08-1.41-28.42,0-4.58.11-9.24.33-13.93.22-4.66.62-9.46,1.17-14.41,2.2-.22,4.31-.35,6.34-.42,2.05-.02,3.98-.18,5.85-.4-.66,3.17-1.1,6.16-1.32,8.98-.22,2.79-.33,5.35-.33,7.66s.11,4.4.33,6.29c.22,1.85.44,3.39.66,4.58.22,1.54.51,2.86.84,3.96l16.43-4.18,5.48-1.41c-.99-3.85-1.5-7.9-1.5-12.21v-.04Z"/><path class="cls-6" d="m435.97,257.84c-.46-1.52-.92-3.01-1.43-4.49-2.05-6.31-4.29-12.34-6.73-18.08-3.01-7.08-5.83-13.55-8.4-19.45-2.57-5.87-4.05-10.8-4.38-14.74,2.09-5.06,3.15-8.47,3.15-10.23l-29.83-2.46c-.22,1.98-.97,4.69-2.22,8.16-1.28,3.45-2.79,7.46-4.62,12.01-1.8,4.58-3.7,9.59-5.68,15-.81,2.27-1.63,4.58-2.38,6.93-1.12,3.32-2.16,6.75-3.15,10.3-.86,3.06-1.65,6.14-2.35,9.28-.68,3.06-1.3,6.18-1.85,9.33-1.1,6.38-1.65,12.74-1.65,19.12,0,8.67,1.01,15.95,3.06,21.84,2.02,5.87,4.73,10.6,8.14,14.23,3.41,3.65,7.3,6.25,11.7,7.83,4.4,1.58,8.95,2.42,13.68,2.42,5.37,0,10.41-1.06,15.07-3.08,4.66-2.02,8.73-4.88,12.19-8.56,1.8-1.94,3.43-4.05,4.84-6.4v-.02c1.3-2.16,2.44-4.49,3.41-7.02,2.02-5.28,3.06-11.15,3.06-17.62,0-8.25-1.21-16.35-3.63-24.31Zm-27.52,31.81c-.66,2.46-1.45,4.33-2.4,5.59-.92,1.28-1.94,2.11-3.04,2.51-1.1.35-2.16.55-3.15.55-.77,0-1.69-.22-2.79-.66s-2.13-1.39-3.12-2.82c-.99-1.41-1.83-3.48-2.49-6.14-.66-2.73-.99-6.31-.99-10.82,0-6.16.95-12.74,2.82-19.78,1.87-7.02,4.05-14.01,6.58-20.92,1.1,3.54,2.2,7.13,3.3,10.87s2.11,7.41,3.06,11.04c.92,3.63,1.69,7.19,2.31,10.63.59,3.45.9,6.8.9,9.97,0,4.2-.33,7.5-.99,9.99Z"/><path class="cls-4" d="m536.31,273.99c-.33-9.37-.7-18.37-1.14-26.95-.44-8.54-.84-16.56-1.17-23.96-.33-7.41-.48-13.95-.48-19.51,0-3.3.04-6.23.15-8.76.11-2.51.4-4.66.84-6.42l-24.22,2.46c-1.43,1.45-2.86,3.28-4.29,5.52-1.43,2.24-2.77,4.71-4.03,7.33-1.28,2.64-2.49,5.39-3.63,8.25-1.17,2.88-2.22,5.65-3.21,8.4-2.31,6.6-4.4,13.51-6.27,20.77-1.76-7.92-3.63-15.27-5.61-22.09-.88-2.86-1.8-5.76-2.79-8.73-.99-2.97-2.07-5.72-3.21-8.25-1.14-2.51-2.35-4.77-3.63-6.73-1.25-2-2.55-3.48-3.87-4.47l-24.04-2.46c.33,1.56.55,3.26.66,5.19.11,1.91.15,4.09.15,6.49,0,5.06-.24,10.98-.75,17.73-.48,6.75-1.01,14.17-1.56,22.24-.07,1.01-.13,2.02-.2,3.06-.2,2.95-.4,5.96-.57,9.06-.26,4.44-.53,9.02-.79,13.75-.48,9.17-.75,18.65-.75,28.42v9.48c0,1.41.02,2.84.09,4.25,0,.31,0,.59.02.9v.07c.04,1.43.13,2.84.22,4.27l27.52-5.1c-.44-2.99-.73-6.16-.9-9.57-.15-3.41-.24-7.04-.24-10.89,0-6.25.18-12.85.57-19.75.37-6.93.79-13.86,1.23-20.77,1.1,4.4,2.05,8.93,2.82,13.6.75,4.66,1.41,8.91,1.96,12.76.66,4.4,1.21,8.73,1.65,13.05h25.54v-1.19l-.15-2.11v-1.17c0-6.16.53-12.28,1.56-18.37,1.03-6.12,2.33-11.79,3.87-17.05.11,5.92.26,11.86.51,17.77.2,5.94.4,11.66.57,17.16.15,5.5.29,10.6.4,15.4.11,4.77.18,8.98.18,12.61,0,4.73-.18,8.12-.51,10.23l27.52,4.95c.33-7.5.51-14.96.51-22.42,0-9.57-.18-19.05-.51-28.44Z"/></g><g id="gonflement_custom"><path class="cls-2" d="m97.16,194.61l6.04-.16-1.5-1.5c.06,2.31.12,4.62.19,6.93.02.78.67,1.54,1.5,1.5s1.52-.66,1.5-1.5c-.06-2.31-.12-4.62-.19-6.93-.02-.79-.67-1.52-1.5-1.5l-6.04.16c-.78.02-1.54.67-1.5,1.5s.66,1.52,1.5,1.5h0Z"/><path class="cls-2" d="m104.28,205.51v-.3c0-.21-.04-.4-.13-.58-.06-.19-.16-.35-.31-.48-.14-.15-.3-.25-.48-.31-.18-.09-.37-.14-.58-.13l-.4.05c-.25.07-.47.2-.66.39l-.23.3c-.14.23-.2.49-.2.76v.3c0,.21.04.4.13.58.06.19.16.35.31.48.14.15.3.25.48.31.18.09.37.14.58.13l.4-.05c.25-.07.47-.2.66-.39l.23-.3c.14-.23.2-.49.2-.76h0Z"/><path class="cls-2" d="m136.72,196.58l5.81.53-1.5-1.5c.3,2.8.27,5.83-.13,8.49-.12.77.19,1.65,1.05,1.85.71.16,1.72-.22,1.85-1.05.46-3.08.57-6.18.24-9.29-.09-.87-.62-1.42-1.5-1.5l-5.81-.53c-.78-.07-1.53.74-1.5,1.5.04.87.66,1.42,1.5,1.5h0Z"/><path class="cls-2" d="m140.6,208.01c-.18.4-.18.39-.23.83,0,.01,0,.03,0,.04,0,.15.03.29.06.43,0,.01,0,.03.01.04,0,0,0,0,0,0,.04.1.11.27.15.36,0,0,0,.01.01.02,0,.01.01.02.02.03,0,0,0,0,0,0,.07.09.17.22.24.31,0,0,.01.01.02.02,0,.01.02.02.03.03.1.09.24.19.33.26.02.02.05.03.07.04.13.06.26.12.39.17.01,0,.03,0,.04.01.14.03.29.04.43.06.01,0,.03,0,.04,0,.14,0,.29-.03.43-.06.01,0,.03,0,.04-.01.13-.05.27-.1.39-.17,0,0,.01,0,.02-.01.05-.04.14-.11.16-.12.04-.03.11-.08.16-.12.01,0,.02-.02.03-.03.09-.11.18-.21.26-.33,0,0,0-.01,0-.02,0,0,0,0,0,0,.04-.09.12-.27.15-.36,0-.01,0-.03.01-.04,0,0,0,0,0,0,.02-.1.04-.3.05-.4,0,0,0-.01,0-.02,0-.01,0-.03,0-.04,0,0,0,0,0-.01-.01-.11-.04-.29-.05-.4,0,0,0-.01,0-.02,0-.01,0-.03-.01-.04,0,0,0-.01,0-.02-.04-.11-.11-.26-.15-.36,0,0,0,0,0,0,0-.01-.01-.03-.02-.04,0-.01-.01-.02-.02-.03-.08-.1-.16-.22-.24-.32,0,0-.01-.01-.02-.02-.01-.01-.02-.02-.03-.03-.11-.09-.22-.18-.34-.26-.01,0-.03-.02-.04-.02-.13-.06-.26-.12-.4-.17-.07-.02-.19-.03-.24-.04-.05,0-.17-.03-.24-.03,0,0,0,0-.01,0,0,0,0,0,0,0l-.4.05s-.02,0-.02,0-.02,0-.02,0c0,0,0,0-.01,0l-.36.15s0,0-.01,0c-.17.09-.32.22-.42.39-.13.14-.22.31-.27.51-.06.2-.07.4-.03.6,0,.2.07.39.18.56l.23.3c.19.19.41.31.66.39l.4.05c.27,0,.52-.07.76-.2,0,0,0,0,.01,0l-.36.15s.04-.01.06-.02l-.4.05s.04,0,.06,0l-.4-.05s.05,0,.07.02l-.36-.15s.05.03.07.04l-.3-.23s.05.05.07.07l-.23-.3s.04.06.05.09l-.15-.36s.02.06.02.09l-.05-.4s0,.05,0,.08l.05-.4s0,.04-.02.06l.15-.36s-.02.03-.03.05l.23-.3s-.03.03-.05.05l.3-.23s-.03.02-.05.03l.36-.15s-.04.01-.06.02l.4-.05s-.05,0-.08,0l.4.05s-.06-.01-.09-.02l.36.15s-.06-.03-.09-.05l.3.23s-.05-.04-.07-.07l.23.3s-.03-.05-.04-.07l.15.36s-.02-.04-.02-.07l.05.4s0-.04,0-.06l-.05.4s0-.04.02-.06l-.15.36s0,0,0-.01c.11-.17.17-.36.18-.56.04-.2.04-.4-.03-.6-.05-.2-.14-.37-.27-.51-.11-.16-.25-.29-.42-.39l-.36-.15c-.27-.07-.53-.07-.8,0l-.36.15c-.23.13-.4.31-.54.54h0Z"/><path class="cls-2" d="m179.44,194.35l5.16-1.08-1.85-1.85c-.29,1.59-.58,3.19-.87,4.78-.07.4-.06.79.15,1.16.18.31.54.61.9.69.73.17,1.7-.22,1.85-1.05.29-1.59.58-3.19.87-4.78.1-.54.02-1.06-.39-1.46s-.93-.5-1.46-.39l-5.16,1.08c-.77.16-1.29,1.11-1.05,1.85.26.81,1.02,1.22,1.85,1.05h0Z"/><path class="cls-2" d="m185.12,201.79l-.15-.3c-.09-.17-.22-.32-.39-.42-.14-.13-.31-.22-.51-.27-.2-.06-.4-.07-.6-.03-.2,0-.39.07-.56.18l-.3.23c-.19.19-.31.41-.39.66l-.05.4c0,.27.07.52.2.76l.15.3c.09.17.22.32.39.42.14.13.31.22.51.27.2.06.4.07.6.03.2,0,.39-.07.56-.18l.3-.23c.19-.19.31-.41.39-.66l.05-.4c0-.27-.07-.52-.2-.76h0Z"/><path class="cls-2" d="m255.23,193.05l4.39.13-1.5-1.5c-.18,1.35-.35,2.71-.53,4.06-.05.35.2.82.44,1.06.26.26.69.46,1.06.44s.79-.14,1.06-.44l.23-.3c.14-.23.2-.49.2-.76.18-1.35.35-2.71.53-4.06.04-.34-.2-.84-.44-1.06-.3-.27-.65-.43-1.06-.44l-4.39-.13c-.79-.02-1.54.71-1.5,1.5s.66,1.48,1.5,1.5h0Z"/><path class="cls-2" d="m257.28,198.52l-.15.15c-.15.14-.25.3-.31.48-.09.18-.14.37-.13.58,0,.21.04.4.13.58.06.19.16.35.31.48l.3.23c.23.14.49.2.76.2l.4-.05c.25-.07.47-.2.66-.39l.15-.15c.15-.14.25-.3.31-.48.09-.18.14-.37.13-.58,0-.21-.04-.4-.13-.58-.06-.19-.16-.35-.31-.48l-.3-.23c-.23-.14-.49-.2-.76-.2l-.4.05c-.25.07-.47.2-.66.39h0Z"/><path class="cls-2" d="m348.55,195.2l6.37-.82-1.45-1.1c.82,1.98,1.64,3.95,2.46,5.93.3.72,1.01,1.32,1.85,1.05.69-.22,1.37-1.07,1.05-1.85-.82-1.98-1.64-3.95-2.46-5.93-.23-.55-.75-1.19-1.45-1.1l-6.37.82c-.78.1-1.54.62-1.5,1.5.03.73.67,1.61,1.5,1.5h0Z"/><path class="cls-2" d="m357.28,203.76l.15.15c.14.15.3.25.48.31.18.09.37.14.58.13.21,0,.4-.04.58-.13.19-.06.35-.16.48-.31l.23-.3c.14-.23.2-.49.2-.76l-.05-.4c-.07-.25-.2-.47-.39-.66l-.15-.15c-.14-.15-.3-.25-.48-.31-.18-.09-.37-.14-.58-.13-.21,0-.4.04-.58.13-.19.06-.35.16-.48.31l-.23.3c-.14.23-.2.49-.2.76l.05.4c.07.25.2.47.39.66h0Z"/><path class="cls-2" d="m408.39,194.03l5.2.54-1.45-1.9c-.74,2-1.48,4.01-2.22,6.01-.27.74.3,1.68,1.05,1.85.85.19,1.55-.26,1.85-1.05.74-2,1.48-4.01,2.22-6.01.16-.44,0-.96-.27-1.31-.31-.4-.69-.54-1.18-.59l-5.2-.54c-.78-.08-1.53.75-1.5,1.5.04.88.66,1.41,1.5,1.5h0Z"/><path class="cls-2" d="m408.71,206.19s0,0,0,0c.01,0,.35.15.36.15,0,0,0,0,0,0,.13.04.27.06.41.06.07,0,.23-.03.2-.03.09-.01.14-.01.2-.03.13-.03.25-.09.37-.15,0,0,.3-.23.31-.24,0,0,0,0,0,0,0,0,0,0,0,0,0,0,.23-.3.24-.3,0,0,0,0,0,0,.07-.11.11-.24.16-.37,0,0,0,0,0-.01,0,0,0,0,0,0,0,0,0,0,0,0,0-.03.05-.37.05-.4,0,0,0,0,0-.01,0,0,0,0,0-.01,0,0,0,0,0,0,0-.03-.05-.37-.05-.4,0,0,0,0,0,0,0,0,0,0,0-.01-.04-.13-.09-.25-.16-.37s-.15-.23-.25-.32c0,0-.3-.23-.3-.24,0,0,0,0,0,0,0,0,0,0,0,0,0,0,0,0,0,0-.12-.05-.24-.1-.36-.15,0,0,0,0,0,0,0,0-.4-.05-.4-.05-.28,0-.54.07-.78.21-.17.09-.32.22-.42.39-.13.14-.22.31-.27.51-.06.2-.07.4-.03.6,0,.2.07.39.18.56l.23.3c.19.19.41.31.66.39l.4.05c.27,0,.52-.07.76-.2,0,0,0,0,0,0l-.36.15s0,0,.01,0l-.4.05s0,0,0,0l-.4-.05s0,0,0,0l-.36-.15s0,0,0,0l-.3-.23s0,0,0,0l-.23-.3s0,0,0,.01l-.15-.36s0,.01,0,.02l-.05-.4s0,.02,0,.03l.05-.4s0,.01,0,.02l.15-.36s0,0,0,.01l.23-.3s0,0,0,0l.3-.23s0,0,0,0l.36-.15s0,0,0,0l.4-.05s0,0,0,0l.4.05s0,0-.01,0l.36.15s0,0,0,0c-.17-.11-.36-.17-.56-.18-.2-.04-.4-.04-.6.03-.2.05-.37.14-.51.27-.16.11-.29.25-.39.42l-.15.36c-.07.27-.07.53,0,.8l.15.36c.13.23.31.4.54.54h0Z"/><path class="cls-2" d="m462.82,195.12l3.16.45c.48.07.97.12,1.44.23.12.03.24.06.36.09.1.03.31.11.1.02.19.09.36.2.54.31-.11-.07-.13-.11-.01,0,.08.07.15.14.23.21s.14.15.21.23c.19.2-.05-.1.03.04.11.18.23.35.33.54.05.09.1.19.14.28.04.09.06.16.01.03.36.92.52,1.9.68,2.87.13.78,1.13,1.28,1.85,1.05.84-.27,1.18-1.01,1.05-1.85-.34-2.07-.87-4.31-2.61-5.69-.95-.75-1.98-1.04-3.16-1.21s-2.38-.34-3.57-.5c-.77-.11-1.65.19-1.85,1.05-.16.71.22,1.73,1.05,1.85h0Z"/><path class="cls-2" d="m472.86,205.97c1.93,0,1.93-3,0-3s-1.93,3,0,3h0Z"/><path class="cls-2" d="m526.93,193.85l4.23-.46-1.45-1.9c-.31,1.87-.61,3.74-.92,5.61-.07.41-.07.78.15,1.16.18.31.54.61.9.69.72.16,1.71-.22,1.85-1.05.31-1.87.61-3.74.92-5.61.08-.49.04-.9-.27-1.31-.26-.34-.72-.64-1.18-.59l-4.23.46c-.41.04-.76.14-1.06.44-.26.26-.46.69-.44,1.06.03.74.66,1.59,1.5,1.5h0Z"/><path class="cls-2" d="m531.34,203.01l.15-.3c.11-.17.17-.36.18-.56.04-.2.04-.4-.03-.6-.05-.2-.14-.37-.27-.51-.11-.16-.25-.29-.42-.39l-.36-.15c-.27-.07-.53-.07-.8,0l-.36.15c-.23.13-.4.31-.54.54l-.15.3c-.11.17-.17.36-.18.56-.04.2-.04.4.03.6.05.2.14.37.27.51.11.16.25.29.42.39l.36.15c.27.07.53.07.8,0l.36-.15c.23-.13.4-.31.54-.54h0Z"/><path class="cls-2" d="m254.99,239.32l-.21,10.31,1.1-1.45c-1.59.26-3.19.52-4.78.78-.8.13-1.25,1.12-1.05,1.85.23.85,1.04,1.18,1.85,1.05,1.59-.26,3.19-.52,4.78-.78.65-.11,1.09-.84,1.1-1.45l.21-10.31c.02-.81-.7-1.5-1.5-1.5s-1.48.69-1.5,1.5h0Z"/><path class="cls-2" d="m256.41,233.41s-.01,0-.02,0c-.07,0-.18.02-.21.03-.02,0-.14.02-.21.03,0,0-.01,0-.02,0-.13.04-.25.1-.37.16,0,0-.01,0-.02,0-.11.07-.38.29-.32.24-.01,0-.02.02-.03.03-.24.28-.3.37-.42.73,0,0,0,.01,0,.02-.03.13-.06.48-.06.42,0,.01,0,.03,0,.04.01.14.03.28.06.42,0,0,0,.01,0,.02.04.13.1.25.16.37,0,0,0,.01.01.02.04.05.1.13.12.16.01.02.08.11.12.16,0,0,0,0,.01.01.1.09.21.19.33.25.33.18.45.19.82.22.01,0,.02,0,.03,0,.14,0,.29-.02.43-.06,0,0,.01,0,.02,0,.13-.05.25-.1.37-.16,0,0,.01,0,.02,0,0,0,0,0,0,0,.1-.07.36-.28.31-.24,0,0,.01,0,.02-.01.09-.09.32-.42.24-.32,0,0,0-.01.01-.02.07-.12.11-.25.16-.38.06-.2.07-.4.03-.6,0-.2-.07-.39-.18-.56-.09-.17-.22-.32-.39-.42-.14-.13-.31-.22-.51-.27l-.4-.05c-.27,0-.52.07-.76.2l-.3.23c-.19.19-.31.41-.39.66h0c.05-.12.1-.24.15-.36,0,.01-.01.02-.02.03l.23-.3s-.02.02-.03.03l.3-.23s-.03.02-.04.02l.36-.15s-.03.01-.05.01l.4-.05s-.03,0-.05,0l.4.05s-.03,0-.04-.01l.36.15s-.02-.01-.03-.02l.3.23s-.02-.02-.03-.02l.23.3s-.01-.02-.02-.03l.15.36s0-.02-.01-.04l.05.4s0-.03,0-.04l-.05.4s0-.03.01-.05l-.15.36s.01-.03.02-.04l-.23.3s.02-.02.03-.03l-.3.23s.02-.02.04-.02l-.36.15s.02,0,.04-.01l-.4.05s.02,0,.03,0c.21,0,.4-.04.58-.13.19-.06.35-.16.48-.31.15-.14.25-.3.31-.48.09-.18.14-.37.13-.58l-.05-.4c-.07-.25-.2-.47-.39-.66l-.3-.23c-.23-.14-.49-.2-.76-.2h0Z"/><path class="cls-2" d="m359.02,227.59c.23,3.85,1.02,7.65,2.41,11.25l1.05-1.85c-1.71.58-3.42,1.17-5.12,1.75-.77.26-1.27,1.03-1.05,1.85.21.75,1.08,1.31,1.85,1.05,1.71-.58,3.42-1.17,5.12-1.75.71-.24,1.35-1.05,1.05-1.85-1.29-3.35-2.09-6.86-2.3-10.45-.05-.81-.66-1.5-1.5-1.5-.78,0-1.55.69-1.5,1.5h0Z"/><path class="cls-2" d="m361.4,222.09l-.22-.09.9,2.2c.05-.08.11-.16.16-.23.11-.17.17-.36.18-.56.04-.2.04-.4-.03-.6-.05-.2-.14-.37-.27-.51-.11-.16-.25-.29-.42-.39l-.36-.15c-.27-.07-.53-.07-.8,0l-.36.15c-.23.13-.4.31-.54.54-.05.08-.11.16-.16.23-.14.23-.2.49-.2.76,0,.21.04.4.13.58.06.19.16.35.31.48.19.19.41.31.66.39l.22.09c.2.06.4.07.6.03.2,0,.39-.07.56-.18.17-.09.32-.22.42-.39.13-.14.22-.31.27-.51l.05-.4c0-.27-.07-.52-.2-.76l-.23-.3c-.19-.19-.41-.31-.66-.39h0Z"/><path class="cls-2" d="m287.25,230.66l-.95,10.49,1.9-1.45c-1.33-.19-2.66-.38-4-.58-.8-.12-1.61.2-1.85,1.05-.19.7.24,1.73,1.05,1.85,1.33.19,2.66.38,4,.58,1.02.15,1.8-.39,1.9-1.45l.95-10.49c.07-.81-.74-1.5-1.5-1.5-.87,0-1.43.69-1.5,1.5h0Z"/><path class="cls-2" d="m289.58,225.99l-.17-.17c-.14-.15-.3-.25-.48-.31-.18-.09-.37-.14-.58-.13-.21,0-.4.04-.58.13-.19.06-.35.16-.48.31l-.23.3c-.14.23-.2.49-.2.76l.05.4c.07.25.2.47.39.66l.17.17c.14.15.3.25.48.31.18.09.37.14.58.13.21,0,.4-.04.58-.13.19-.06.35-.16.48-.31l.23-.3c.14-.23.2-.49.2-.76l-.05-.4c-.07-.25-.2-.47-.39-.66h0Z"/><path class="cls-2" d="m497.97,272.77c.03,2.72.09,5.44.07,8.15,0,.33,0,.67-.01,1,0,.27-.12.76-.02,1v.14c.22-.28.44-.56.66-.84.16-.02.16-.03,0-.01-.07,0-.15,0-.22.01-.33.02-.66.04-1,.06-1.4.09-2.81.17-4.21.26-.81.05-1.5.65-1.5,1.5,0,.77.69,1.55,1.5,1.5,1.59-.1,3.18-.2,4.76-.29.82-.05,1.73-.01,2.36-.64s.63-1.52.65-2.36c.07-3.16-.01-6.33-.05-9.49-.02-1.93-3.02-1.93-3,0h0Z"/><path class="cls-2" d="m498.84,267.49l-.04.04c-.15.14-.25.3-.31.48-.09.18-.14.37-.13.58,0,.21.04.4.13.58.06.19.16.35.31.48l.3.23c.23.14.49.2.76.2l.4-.05c.25-.07.47-.2.66-.39l.04-.04c.15-.14.25-.3.31-.48.09-.18.14-.37.13-.58,0-.21-.04-.4-.13-.58-.06-.19-.16-.35-.31-.48l-.3-.23c-.23-.14-.49-.2-.76-.2l-.4.05c-.25.07-.47.2-.66.39h0Z"/><path class="cls-2" d="m338.48,308.02l.43,8.84,1.5-1.5c-1.61.07-3.22.15-4.82.22l1.3.74c-.03-.05-.06-.11-.09-.16-.39-.68-1.37-.98-2.05-.54s-.96,1.32-.54,2.05c.03.05.06.11.09.16.25.44.78.77,1.3.74,1.61-.07,3.22-.15,4.82-.22.78-.04,1.54-.66,1.5-1.5l-.43-8.84c-.04-.78-.66-1.54-1.5-1.5-.78.03-1.54.66-1.5,1.5h0Z"/><path class="cls-2" d="m340.43,303.39l-.15-.07c-.17-.11-.36-.17-.56-.18-.2-.04-.4-.04-.6.03-.2.05-.37.14-.51.27-.16.11-.29.25-.39.42l-.15.36c-.07.27-.07.53,0,.8l.15.36c.13.23.31.4.54.54l.15.07c.17.11.36.17.56.18.2.04.4.04.6-.03.2-.05.37-.14.51-.27.16-.11.29-.25.39-.42l.15-.36c.07-.27.07-.53,0-.8l-.15-.36c-.13-.23-.31-.4-.54-.54h0Z"/><path class="cls-2" d="m103.13,258.74l-.07.07c-.15.14-.25.3-.31.48-.09.18-.14.37-.13.58,0,.21.04.4.13.58.06.19.16.35.31.48l.3.23c.23.14.49.2.76.2l.4-.05c.25-.07.47-.2.66-.39l.07-.07c.15-.14.25-.3.31-.48.09-.18.14-.37.13-.58,0-.21-.04-.4-.13-.58-.06-.19-.16-.35-.31-.48l-.3-.23c-.23-.14-.49-.2-.76-.2l-.4.05c-.25.07-.47.2-.66.39h0Z"/><path class="cls-2" d="m102.53,263.55l.38,10.63,1.5-1.5c-2.34-.05-4.69-.1-7.03-.15-.81-.02-1.5.7-1.5,1.5s.69,1.48,1.5,1.5c2.34.05,4.69.1,7.03.15.79.02,1.53-.7,1.5-1.5l-.38-10.63c-.03-.81-.67-1.5-1.5-1.5s-1.53.69-1.5,1.5h0Z"/><path class="cls-2" d="m186.26,291.97c-.4,4.18-1.85,8.21-4.14,11.72-2.49,3.81-6.06,6.61-9.66,9.3-1.53,1.14-.03,3.75,1.51,2.59,4.04-3.02,7.95-6.11,10.74-10.38,2.59-3.97,4.1-8.53,4.55-13.23.18-1.92-2.82-1.91-3,0h0Z"/><path class="cls-2" d="m188.07,287.55h0c-.13.02-.27.04-.4.05.02,0,.03,0,.05,0l-.4-.05s.03,0,.05.01l-.36-.15s.03.01.04.02l-.3-.23s.03.03.04.04l-.23-.3s.03.04.04.07l-.15-.36s.02.05.02.08l-.05-.4s0,.04,0,.07l.05-.4s0,.04-.01.05l.15-.36s-.01.03-.02.04l.23-.3s-.02.02-.03.03l.3-.23s-.02.02-.04.02l.36-.15s-.03.01-.04.01l.4-.05s-.03,0-.05,0l.4.05s-.04,0-.06-.02l.36.15s-.04-.02-.06-.03l.3.23s-.04-.04-.06-.06l.23.3s-.03-.04-.04-.06l.15.36s-.01-.04-.02-.06l.05.4s0-.03,0-.05l-.05.4s0-.03.01-.05l-.15.36s.01-.02.02-.04l-.23.3s0,0,0,0c.15-.14.25-.3.31-.48.09-.18.14-.37.13-.58,0-.21-.04-.4-.13-.58-.06-.19-.16-.35-.31-.48l-.3-.23c-.23-.14-.49-.2-.76-.2l-.4.05c-.25.07-.47.2-.66.39,0,0,0,0,0,0-.03.04-.21.27-.24.31,0,0,0,0,0,.01s0,0,0,.01c-.03.06-.08.19-.08.19-.01.03-.06.13-.08.19,0,0,0,.02,0,.03-.02.14-.05.28-.06.43,0,.01,0,.02,0,.03,0,.06.04.34.05.4,0,0,0,0,0,0,0,0,0,.01,0,.02,0,.01,0,.02.01.03.04.1.11.27.15.36,0,0,0,0,0,0,0,0,0,.01,0,.02,0,0,.01.02.02.03.04.06.09.12.13.16.03.04.08.11.13.16,0,0,.01.02.02.02,0,0,0,0,.01.01,0,0,0,0,0,0,.09.07.22.17.31.24,0,0,.02.01.03.02.11.07.39.17.39.17,0,0,.02,0,.03.01.14.04.31.05.43.06.01,0,.02,0,.03,0,0,0,.01,0,.02,0l.2-.03c.07,0,.14-.02.2-.03,0,0,0,0,0,0,.01,0,.02,0,.03,0-.09.04.28-.1.39-.17.06-.04.12-.1.16-.12.02-.02.11-.08.16-.13s.12-.15.14-.17c.02-.02.1-.11.13-.17,0,0,0,0,0-.01,0,0,0,0,0,0l.15-.36h0s0-.02,0-.03c0,0,0,0,0-.01,0,0,0,0,0,0,0-.07.02-.13.03-.2.01-.07.02-.14.03-.2,0-.02,0-.04,0-.06,0-.06-.04-.34-.05-.4,0,0,0,0,0,0,0,0,0,0,0-.01,0-.01,0-.02,0-.03,0,0,0,0,0-.01,0,0,0,0,0,0-.02-.06-.13-.3-.15-.36,0-.01,0-.02-.01-.03s-.01-.02-.02-.03c0,0,0,0,0,0-.06-.08-.18-.23-.24-.31,0,0,0,0-.01-.01,0,0-.02-.02-.03-.02-.1-.09-.21-.18-.33-.25,0,0-.01,0-.02,0,0,0,0,0,0,0-.06-.03-.12-.05-.18-.08-.06-.03-.12-.05-.18-.08-.01,0-.02,0-.03,0,0,0,0,0,0,0h0c-.13-.02-.27-.04-.4-.05,0,0-.01,0-.02,0,0,0-.01,0-.02,0,0,0,0,0,0,0-.07,0-.14.02-.2.03-.07,0-.14.02-.2.03-.2.05-.37.14-.51.27-.16.11-.29.25-.39.42-.11.17-.17.36-.18.56-.04.2-.04.4.03.6l.15.36c.13.23.31.4.54.54l.36.15c.27.07.53.07.8,0h0Z"/><path class="cls-2" d="m98.86,321.42l5.27-1c.91-.17,1.83-.35,2.74-.52.85-.16,1.69-.39,2.31-1.02,1.23-1.25,1.02-3.22.87-4.81-.16-1.78-.48-3.55-.97-5.27-.53-1.85-3.42-1.07-2.89.8.39,1.36.69,2.76.84,4.17.07.72.13,1.45.13,2.18,0,.16,0,.33-.01.49.02-.21-.05.23-.05.24-.03.12-.09.2,0,.05.05-.1-.2.14-.02.04-.43.25-1.38.31-1.95.42l-2.32.44-4.74.9c-.8.15-1.25,1.11-1.05,1.85.23.83,1.05,1.2,1.85,1.05h0Z"/><path class="cls-2" d="m105.75,305.6c1.93,0,1.93-3,0-3s-1.93,3,0,3h0Z"/><path class="cls-2" d="m250.53,315.73c6.76-4.05,12.27-10.08,15.64-17.2.35-.73.2-1.62-.54-2.05-.65-.38-1.7-.2-2.05.54-3.16,6.69-8.22,12.32-14.57,16.13-1.65.99-.15,3.59,1.51,2.59h0Z"/><path class="cls-2" d="m263.13,292.77l-.03.22c0,.21.04.4.13.58.06.19.16.35.31.48.14.15.3.25.48.31.18.09.37.14.58.13l.4-.05c.25-.07.47-.2.66-.39l.23-.3c.14-.23.2-.49.2-.76l.03-.22c0-.21-.04-.4-.13-.58-.06-.19-.16-.35-.31-.48-.14-.15-.3-.25-.48-.31-.18-.09-.37-.14-.58-.13l-.4.05c-.25.07-.47.2-.66.39l-.23.3c-.14.23-.2.49-.2.76h0Z"/><path class="cls-2" d="m433.07,276.71c1.58,11.44-2.37,23.4-10.3,31.75-1.33,1.4.79,3.52,2.12,2.12,8.75-9.21,12.81-22.12,11.07-34.67-.11-.81-1.14-1.23-1.85-1.05-.87.23-1.16,1.05-1.05,1.85h0Z"/><path class="cls-2" d="m432.91,270.38l-.58.47-.23.3c-.11.17-.17.36-.18.56-.04.13-.04.27,0,.4,0,.2.07.39.18.56l.23.3.3.23c.17.11.36.17.56.18.2.04.4.04.6-.03.2-.05.41-.09.61-.14.2-.05.37-.14.51-.27.16-.11.29-.25.39-.42.11-.17.17-.36.18-.56.04-.2.04-.4-.03-.6l-.15-.36c-.13-.23-.31-.4-.54-.54l-.36-.15c-.27-.07-.53-.07-.8,0-.2.05-.41.09-.61.14l1.46,2.51.58-.47c.15-.14.25-.3.31-.48.09-.18.14-.37.13-.58,0-.21-.04-.4-.13-.58-.06-.19-.16-.35-.31-.48l-.3-.23c-.23-.14-.49-.2-.76-.2l-.4.05c-.25.07-.47.2-.66.39h0Z"/><path class="cls-2" d="m463.87,297.44c.15,2.9.3,5.81.44,8.71l1.5-1.5c-1.53.03-2.98.41-4.36,1.07-.71.34-.95,1.41-.54,2.05.47.73,1.29.9,2.05.54.84-.41,1.9-.64,2.85-.66.78-.02,1.54-.67,1.5-1.5-.15-2.9-.3-5.81-.44-8.71-.04-.78-.66-1.54-1.5-1.5-.78.03-1.54.66-1.5,1.5h0Z"/><path class="cls-2" d="m463.98,292.11s0,0,0,0l.23-.3s0,0-.01.01l.3-.23s-.01,0-.02,0l.36-.15s-.01,0-.02,0l.4-.05s-.02,0-.03,0l.4.05s-.02,0-.03,0l.36.15s-.02,0-.02-.01l.3.23s0,0-.01-.01l.23.3s0,0,0-.01l.15.36s0-.01,0-.02l.05.4s0-.01,0-.02l-.05.4s0-.01,0-.02l-.15.36s0-.01,0-.01l-.23.3s0-.01.01-.01l-.3.23s.01,0,.02-.01l-.36.15s.02,0,.03,0l-.4.05s.02,0,.03,0l-.4-.05s.01,0,.02,0l-.36-.15s.01,0,.01,0l-.3-.23s0,0,.01.01l-.23-.3s0,0,0,0c.09.17.22.32.39.42.14.13.31.22.51.27.2.06.4.07.6.03.2,0,.39-.07.56-.18l.3-.23c.19-.19.31-.41.39-.66l.05-.4c0-.27-.07-.52-.2-.76-.07-.12-.15-.23-.25-.32s-.2-.17-.31-.24c0,0,0,0,0,0-.12-.06-.24-.11-.37-.15,0,0,0,0-.01,0-.06-.01-.33-.04-.2-.03.09.01-.14-.02-.2-.03,0,0,0,0-.01,0-.35.01-.49.06-.8.21,0,0-.01,0-.02.01l-.3.23s0,0,0,0c0,0,0,0,0,0,0,0,0,0,0,0-.25.3-.2.23-.32.5s-.11.23-.13.6c0,0,0,0,0,.01,0,.02.05.38.05.4,0,0,0,0,0,0,0,0,0,0,0,.01.04.12.09.25.16.37.15.24.32.42.57.56.3.18.46.18.8.22,0,0,.02,0,.03,0,.02,0,.38-.05.4-.05,0,0,0,0,0,0,0,0,0,0,.01,0,.33-.12.42-.16.68-.4.1-.09.18-.2.25-.32.11-.17.17-.36.18-.56.04-.2.04-.4-.03-.6-.05-.2-.14-.37-.27-.51-.11-.16-.25-.29-.42-.39l-.36-.15c-.27-.07-.53-.07-.8,0l-.36.15c-.23.13-.4.31-.54.54h0Z"/><path class="cls-2" d="m528.1,321.52c1.18-.14,2.37-.13,3.54.02l-.4-.05c.5.07,1,.17,1.5.29,1.13.28,2.11-.72,1.85-1.85-.09-.4-.17-.79-.23-1.2l.05.4c-.15-1.11-.15-2.23,0-3.34l-.05.4c.04-.27.08-.53.14-.8.15-.77-.22-1.66-1.05-1.85-.75-.17-1.68.23-1.85,1.05-.41,2.04-.39,4.11.09,6.13l1.85-1.85c-1.77-.44-3.62-.58-5.44-.36-.41.05-.76.14-1.06.44-.26.26-.46.69-.44,1.06s.14.79.44,1.06c.27.25.67.48,1.06.44h0Z"/><path class="cls-2" d="m532.66,308.47l-.22.11c-.17.09-.32.22-.42.39-.13.14-.22.31-.27.51-.06.2-.07.4-.03.6,0,.2.07.39.18.56l.23.3c.19.19.41.31.66.39l.4.05c.27,0,.52-.07.76-.2l.22-.11c.17-.09.32-.22.42-.39.13-.14.22-.31.27-.51.06-.2.07-.4.03-.6,0-.2-.07-.39-.18-.56l-.23-.3c-.19-.19-.41-.31-.66-.39l-.4-.05c-.27,0-.52.07-.76.2h0Z"/></g></g></g></g></g></svg>