<?xml version="1.0" encoding="utf-8"?>
<!-- Generator: Adobe Illustrator 28.0.0, SVG Export Plug-In . SVG Version: 6.00 Build 0)  -->
<svg version="1.1" id="Calque_1" xmlns="http://www.w3.org/2000/svg" xmlns:xlink="http://www.w3.org/1999/xlink" x="0px" y="0px"
	 viewBox="0 0 60 60" style="enable-background:new 0 0 60 60;" xml:space="preserve">
<style type="text/css">
	.st0{fill:#EFDF6A;}
</style>
<g id="Calque_1_00000116957475200096615340000002906273038595745932_">
	<g>
		<path class="st0" d="M27.3,33.2l-11.4-8.6l11.8-8.9c1.1-0.9,1.9-1.4,2.3-1.5c0.3-0.1,0.7-0.1,1.1,0c0.4,0.1,1.1,0.7,2.2,1.6
			l10.9,8.8l-11.5,8.7c-1.1,0.8-1.8,1.3-2.2,1.4c-0.3,0.1-0.7,0.1-1,0C29.1,34.5,28.4,34,27.3,33.2z"/>
		<path class="st0" d="M35.1,36.5l11.3-8.6v13.5c0,1.8,0,3-0.2,3.4c-0.2,0.4-0.5,0.7-0.9,0.9c-0.4,0.2-1.6,0.2-3.4,0.2H18
			c-1.8,0-3,0-3.4-0.2c-0.4-0.2-0.7-0.5-0.9-0.9c-0.2-0.4-0.2-1.6-0.2-3.4V27.9l11.4,8.6c1.6,1.1,2.4,1.8,3.6,2.1
			c1,0.3,2.1,0.3,3.1,0C32.7,38.3,33.6,37.6,35.1,36.5z"/>
		<path class="st0" d="M30,0C13.4,0,0,13.4,0,30s13.4,30,30,30s30-13.4,30-30S46.6,0,30,0z M50.6,41.4c0,2.6,0,4-0.7,5.3
			c-0.6,1.2-1.5,2.1-2.7,2.7c-1.3,0.7-2.7,0.7-5.3,0.7H18c-2.5,0-3.9,0-5.3-0.7c-1.2-0.6-2.1-1.5-2.7-2.7c-0.7-1.3-0.7-2.7-0.7-5.3
			V28.6c0-1.3,0-2.1,0.2-2.9c0.2-0.7,0.5-1.4,1-2c0.5-0.7,1.1-1.2,2.2-2l12.4-9.4c1.6-1.2,2.5-1.9,3.7-2.2c1.1-0.3,2.2-0.2,3.2,0
			c1.2,0.3,2.1,1,3.7,2.3l11.5,9.2c1,0.8,1.6,1.3,2.1,1.9c0.4,0.6,0.8,1.3,1,2c0.2,0.8,0.2,1.5,0.2,2.8V41.4z"/>
	</g>
</g>
<g id="icons">
</g>
</svg>
