<?xml version="1.0" encoding="utf-8"?>
<!-- Generator: Adobe Illustrator 28.0.0, SVG Export Plug-In . SVG Version: 6.00 Build 0)  -->
<svg version="1.1" id="Calque_1" xmlns="http://www.w3.org/2000/svg" xmlns:xlink="http://www.w3.org/1999/xlink" x="0px" y="0px"
	 viewBox="0 0 60 60" style="enable-background:new 0 0 60 60;" xml:space="preserve">
<style type="text/css">
	.st0{fill:#EFDF6A;}
</style>
<g id="Calque_1_00000116957475200096615340000002906273038595745932_">
	<g>
		<path class="st0" d="M30,0C13.4,0,0,13.4,0,30s13.4,30,30,30s30-13.4,30-30S46.6,0,30,0z M26.3,35.2c-0.1,0.3-0.4,0.6-0.6,0.6
			c-1.1,0.1-2.3,0-3.6,0c0.3-1.8,0.6-3.5,0.9-5.3c0.1-0.6,0.2-1.2,0.3-1.8c0.1-0.6,0-1.2-0.8-1.4c-0.8-0.1-1.3,0.2-1.5,0.9
			c-0.2,0.9-0.4,1.8-0.5,2.7c-0.3,1.6-0.5,3.2-0.8,4.8h-4c0.4-2.2,0.7-4.3,1.1-6.4c0-0.2,0.1-0.4,0.1-0.6c0-0.6,0-1.3-0.8-1.5
			c-0.7-0.2-1.5,0.3-1.6,1.2c-0.3,1.5-0.5,3.1-0.8,4.6c-0.1,0.8-0.3,1.7-0.4,2.6h-4c0.4-2.6,0.8-5.1,1.3-7.6c0.2-1,0.3-1.9,0.5-2.9
			c0.1-0.2,0.4-0.6,0.6-0.6h2.8V26c1-1,1.9-1.8,3.3-1.8c1.5-0.1,2.4,0.6,3,2.1c1-1.4,2.2-2.2,3.8-2.1c1.7,0.1,2.9,1.1,2.8,2.9
			c-0.1,1.7-0.4,3.4-0.6,5.1C26.7,33.2,26.5,34.2,26.3,35.2z M37.7,34.3c-0.8,0.8-1.9,1.4-3,1.6c-1.4,0.2-2.9,0.1-4.4-0.1
			c-1.4-0.2-2.4-1.2-3-2.8c1-0.2,1.9-0.5,2.9-0.7c0.2,0,0.4,0.1,0.5,0.3c0.7,1.1,1.8,1.2,2.9,1c0.3-0.1,0.6-0.5,0.9-0.7
			c-0.3-0.3-0.5-0.7-0.8-0.8c-1.1-0.4-2.2-0.6-3.3-1c-1.2-0.5-2.2-1.2-2.3-2.7c-0.1-1.6,0.6-2.9,2.1-3.6c2.2-1,4.4-1.1,6.6,0
			c0.9,0.4,1.6,1.1,1.9,2.2c-0.9,0.2-1.8,0.4-2.6,0.6c-0.2,0-0.6-0.1-0.7-0.3c-0.6-0.8-1.5-0.9-2.4-0.8c-0.3,0.1-0.5,0.7-0.5,0.7
			s0.1,0.7,0.4,0.8c1.2,0.4,2.5,0.6,3.7,1.1C38.7,30,39.3,32.6,37.7,34.3z M51,27.3c-0.3,2.8-0.8,5.5-1.3,8.3h-4.2
			c0.3-1.6,0.5-3.2,0.8-4.8c0.1-0.7,0.3-1.5,0.3-2.2c0-0.4-0.3-1.2-0.5-1.3c-0.5-0.1-1.3,0.1-1.6,0.4c-0.4,0.4-0.5,1.2-0.7,1.8
			c-0.4,2-0.7,4-1.1,6.1h-4c0.2-1.5,0.4-2.9,0.7-4.3c0.3-1.9,0.7-3.8,0.9-5.7c0.1-0.8,0.4-1.3,1.4-1.2c0.8,0.1,1.7,0,2.6,0
			c0,0.5-0.1,0.9-0.1,1.7c1.1-1.4,2.2-2,3.7-2C49.9,24.1,51.2,25.4,51,27.3z"/>
	</g>
</g>
<g id="icons">
</g>
</svg>
