<?xml version="1.0" encoding="utf-8"?>
<!-- Generator: Adobe Illustrator 28.0.0, SVG Export Plug-In . SVG Version: 6.00 Build 0)  -->
<svg version="1.1" id="Calque_1" xmlns="http://www.w3.org/2000/svg" xmlns:xlink="http://www.w3.org/1999/xlink" x="0px" y="0px"
	 viewBox="0 0 60 60" style="enable-background:new 0 0 60 60;" xml:space="preserve">
<style type="text/css">
	.st0{fill:#EFDF6A;}
</style>
<g id="Calque_1_00000141416191312133580110000008190903229931673230_">
	<g>
		<path class="st0" d="M30,0C13.4,0,0,13.4,0,30s13.4,30,30,30s30-13.4,30-30S46.6,0,30,0z M47.5,26.4c0,0-2.4-0.1-4.2-0.6
			c-2.5-0.7-4.1-1.7-4.1-1.7s-1.1-0.7-1.2-0.8v14.2c0,0.8-0.2,2.8-0.8,4.4c-0.5,1.4-1.3,2.7-2.3,3.9c0,0-1.5,1.9-4.3,3.2
			c-2.5,1.2-4.6,1.1-5.2,1.2c0,0-3.7,0.1-7.1-2.1l0,0l0,0c-1.1-0.8-2.2-1.8-3-2.8c-1.1-1.3-1.7-3-1.9-3.4l0,0
			c-0.4-0.9-1-2.9-0.9-4.7c0.1-3.3,1.2-5.3,1.5-5.8c0.8-1.4,1.8-2.6,3-3.7c2.8-2.3,6.4-3.4,9.9-2.9v7.1c-0.6-0.2-1.2-0.3-1.8-0.3
			c-3.2,0-5.8,2.6-5.8,5.9c0,3.3,2.6,5.9,5.8,5.9c1,0,2-0.3,2.9-0.8c1.7-1,2.8-2.7,3-4.7l0,0v-0.1v-0.1c0-0.4,0-0.7,0-1.1V9.8h6.9
			c0,0-0.1,0.7,0.1,1.7l0,0c0.2,1.2,0.8,3,2.3,4.8c0.6,0.7,1.3,1.2,2,1.7c0.2,0.2,0.5,0.3,0.8,0.5c1.8,0.9,3.5,1.1,4.4,1.1
			C47.5,19.6,47.5,26.4,47.5,26.4z"/>
	</g>
</g>
<g id="icons">
</g>
</svg>
